<?xml version='1.0' encoding='utf-8'?>
<mlt LC_NUMERIC="C" producer="main_bin" version="7.8.0" root="/home/emrepiskin/projects/personal/github/Parliament Sinema Kulübü - Pazar Gecesi Sineması - Star Tv">
 <profile frame_rate_num="60" sample_aspect_num="1" display_aspect_den="9" colorspace="709" progressive="1" description="4K UHD 2160p 60 fps" display_aspect_num="16" frame_rate_den="1" width="3840" height="2160" sample_aspect_den="1"/>
 <producer id="producer2" in="00:00:00.000" out="00:00:46.167">
  <property name="length">2771</property>
  <property name="eof">pause</property>
  <property name="resource">videos-original/Parliament Sinema Kulübü - Pazar Gecesi Sineması - Star Tv - 240p.mkv</property>
  <property name="audio_index">1</property>
  <property name="video_index">0</property>
  <property name="mute_on_pause">0</property>
  <property name="mlt_service">avformat-novalidate</property>
  <property name="meta.media.nb_streams">2</property>
  <property name="meta.media.0.stream.type">video</property>
  <property name="meta.media.0.stream.frame_rate">25</property>
  <property name="meta.media.0.stream.sample_aspect_ratio">1</property>
  <property name="meta.media.0.codec.width">320</property>
  <property name="meta.media.0.codec.height">240</property>
  <property name="meta.media.0.codec.rotate">0</property>
  <property name="meta.media.0.codec.frame_rate">25</property>
  <property name="meta.media.0.codec.pix_fmt">yuv420p</property>
  <property name="meta.media.0.codec.sample_aspect_ratio">1</property>
  <property name="meta.media.0.codec.colorspace">601</property>
  <property name="meta.media.0.codec.name">h264</property>
  <property name="meta.media.0.codec.long_name">H.264 / AVC / MPEG-4 AVC / MPEG-4 part 10</property>
  <property name="meta.media.0.codec.bit_rate">0</property>
  <property name="meta.attr.0.stream.HANDLER_NAME.markup">ISO Media file produced by Google Inc.</property>
  <property name="meta.attr.0.stream.DURATION.markup">00:00:46.160000000</property>
  <property name="meta.media.1.stream.type">audio</property>
  <property name="meta.media.1.codec.sample_fmt">fltp</property>
  <property name="meta.media.1.codec.sample_rate">48000</property>
  <property name="meta.media.1.codec.channels">1</property>
  <property name="meta.media.1.codec.name">opus</property>
  <property name="meta.media.1.codec.long_name">Opus</property>
  <property name="meta.media.1.codec.bit_rate">0</property>
  <property name="meta.attr.1.stream.language.markup">eng</property>
  <property name="meta.attr.1.stream.DURATION.markup">00:00:46.181000000</property>
  <property name="meta.attr.ENCODER.markup">Lavf58.16.100</property>
  <property name="seekable">1</property>
  <property name="meta.media.sample_aspect_num">1</property>
  <property name="meta.media.sample_aspect_den">1</property>
  <property name="aspect_ratio">1</property>
  <property name="kdenlive:clipname"/>
  <property name="kdenlive:folderid">15</property>
  <property name="meta.media.frame_rate_num">25</property>
  <property name="meta.media.frame_rate_den">1</property>
  <property name="meta.media.colorspace">601</property>
  <property name="meta.media.color_trc">2</property>
  <property name="meta.media.width">320</property>
  <property name="meta.media.height">240</property>
  <property name="meta.media.color_range">mpeg</property>
  <property name="kdenlive:id">2</property>
  <property name="kdenlive:file_size">1470189</property>
  <property name="kdenlive:file_hash">36748da51f6a50180f2ca7f39bd9909f</property>
  <property name="meta.media.top_field_first">0</property>
  <property name="meta.media.progressive">1</property>
  <property name="global_feed">1</property>
  <property name="kdenlive:audio_max">1</property>
  <property name="meta.media.has_b_frames">1</property>
  <property name="kdenlive:clip_type">0</property>
 </producer>
 <producer id="producer9" in="00:00:00.000" out="00:00:59.500">
  <property name="length">3571</property>
  <property name="eof">pause</property>
  <property name="resource">videos/02-60fps.mkv</property>
  <property name="audio_index">0</property>
  <property name="video_index">0</property>
  <property name="mute_on_pause">0</property>
  <property name="mlt_service">avformat-novalidate</property>
  <property name="seekable">1</property>
  <property name="aspect_ratio">1</property>
  <property name="kdenlive:clipname">02-60fps.mkv</property>
  <property name="kdenlive:folderid">15</property>
  <property name="kdenlive:id">3</property>
  <property name="kdenlive:file_size">12935485</property>
  <property name="global_feed">1</property>
  <property name="kdenlive:audio_max">12</property>
  <property name="meta.media.nb_streams">1</property>
  <property name="meta.media.0.stream.type">video</property>
  <property name="meta.media.0.stream.frame_rate">60</property>
  <property name="meta.media.0.stream.sample_aspect_ratio">1</property>
  <property name="meta.media.0.codec.width">1280</property>
  <property name="meta.media.0.codec.height">720</property>
  <property name="meta.media.0.codec.rotate">0</property>
  <property name="meta.media.0.codec.frame_rate">60</property>
  <property name="meta.media.0.codec.pix_fmt">yuv420p</property>
  <property name="meta.media.0.codec.sample_aspect_ratio">1</property>
  <property name="meta.media.0.codec.colorspace">709</property>
  <property name="meta.media.0.codec.name">h264</property>
  <property name="meta.media.0.codec.long_name">H.264 / AVC / MPEG-4 AVC / MPEG-4 part 10</property>
  <property name="meta.media.0.codec.bit_rate">0</property>
  <property name="meta.attr.0.stream.HANDLER_NAME.markup">VideoHandler</property>
  <property name="meta.attr.0.stream.ENCODER.markup">Lavc58.91.100 libx264</property>
  <property name="meta.attr.0.stream.DURATION.markup">00:00:59.517000000</property>
  <property name="meta.attr.MINOR_VERSION.markup">0</property>
  <property name="meta.attr.COMPATIBLE_BRANDS.markup">iso6avc1mp41</property>
  <property name="meta.attr.MAJOR_BRAND.markup">dash</property>
  <property name="meta.attr.ENCODER.markup">Lavf58.45.100</property>
  <property name="meta.media.sample_aspect_num">1</property>
  <property name="meta.media.sample_aspect_den">1</property>
  <property name="meta.media.frame_rate_num">60</property>
  <property name="meta.media.frame_rate_den">1</property>
  <property name="meta.media.colorspace">709</property>
  <property name="meta.media.color_trc">2</property>
  <property name="meta.media.width">1280</property>
  <property name="meta.media.height">720</property>
  <property name="meta.media.color_range">mpeg</property>
  <property name="kdenlive:file_hash">6a065bec48a9721f6895f9215f996d0c</property>
  <property name="meta.media.top_field_first">0</property>
  <property name="meta.media.progressive">1</property>
  <property name="meta.media.has_b_frames">2</property>
  <property name="kdenlive:clip_type">2</property>
 </producer>
 <producer id="producer10" in="00:00:00.000" out="00:00:59.500">
  <property name="length">3571</property>
  <property name="eof">pause</property>
  <property name="resource">videos/03-60fps.mkv</property>
  <property name="audio_index">0</property>
  <property name="video_index">0</property>
  <property name="mute_on_pause">0</property>
  <property name="mlt_service">avformat-novalidate</property>
  <property name="seekable">1</property>
  <property name="aspect_ratio">1</property>
  <property name="kdenlive:clipname">03-60fps.mkv</property>
  <property name="kdenlive:folderid">15</property>
  <property name="kdenlive:id">4</property>
  <property name="kdenlive:file_size">14623212</property>
  <property name="global_feed">1</property>
  <property name="kdenlive:audio_max">13</property>
  <property name="meta.media.nb_streams">1</property>
  <property name="meta.media.0.stream.type">video</property>
  <property name="meta.media.0.stream.frame_rate">60</property>
  <property name="meta.media.0.stream.sample_aspect_ratio">1</property>
  <property name="meta.media.0.codec.width">1280</property>
  <property name="meta.media.0.codec.height">720</property>
  <property name="meta.media.0.codec.rotate">0</property>
  <property name="meta.media.0.codec.frame_rate">60</property>
  <property name="meta.media.0.codec.pix_fmt">yuv420p</property>
  <property name="meta.media.0.codec.sample_aspect_ratio">1</property>
  <property name="meta.media.0.codec.colorspace">709</property>
  <property name="meta.media.0.codec.name">h264</property>
  <property name="meta.media.0.codec.long_name">H.264 / AVC / MPEG-4 AVC / MPEG-4 part 10</property>
  <property name="meta.media.0.codec.bit_rate">0</property>
  <property name="meta.attr.0.stream.HANDLER_NAME.markup">VideoHandler</property>
  <property name="meta.attr.0.stream.ENCODER.markup">Lavc58.91.100 libx264</property>
  <property name="meta.attr.0.stream.DURATION.markup">00:00:59.517000000</property>
  <property name="meta.attr.MINOR_VERSION.markup">0</property>
  <property name="meta.attr.COMPATIBLE_BRANDS.markup">iso6avc1mp41</property>
  <property name="meta.attr.MAJOR_BRAND.markup">dash</property>
  <property name="meta.attr.ENCODER.markup">Lavf58.45.100</property>
  <property name="meta.media.sample_aspect_num">1</property>
  <property name="meta.media.sample_aspect_den">1</property>
  <property name="meta.media.frame_rate_num">60</property>
  <property name="meta.media.frame_rate_den">1</property>
  <property name="meta.media.colorspace">709</property>
  <property name="meta.media.color_trc">2</property>
  <property name="meta.media.width">1280</property>
  <property name="meta.media.height">720</property>
  <property name="meta.media.color_range">mpeg</property>
  <property name="kdenlive:file_hash">537e7d0347f6e98a58c113ae553800fc</property>
  <property name="meta.media.top_field_first">0</property>
  <property name="meta.media.progressive">1</property>
  <property name="meta.media.has_b_frames">2</property>
  <property name="kdenlive:clip_type">2</property>
 </producer>
 <producer id="producer7" in="00:00:00.000" out="00:00:46.617">
  <property name="length">2798</property>
  <property name="eof">pause</property>
  <property name="resource">images/rendered/star-tv-4k.png</property>
  <property name="ttl">25</property>
  <property name="aspect_ratio">1</property>
  <property name="progressive">1</property>
  <property name="seekable">1</property>
  <property name="meta.media.width">3840</property>
  <property name="meta.media.height">2160</property>
  <property name="mlt_service">qimage</property>
  <property name="kdenlive:clipname"/>
  <property name="kdenlive:duration">00:00:05.000</property>
  <property name="kdenlive:folderid">12</property>
  <property name="kdenlive:id">5</property>
  <property name="kdenlive:file_size">49158</property>
  <property name="kdenlive:file_hash">c3c04d3db030e321439ccb31656fdd5d</property>
  <property name="global_feed">1</property>
  <property name="kdenlive:clip_type">2</property>
 </producer>
 <producer id="producer8" in="00:00:00.000" out="00:03:06.517">
  <property name="length">11192</property>
  <property name="eof">pause</property>
  <property name="resource">videos/01-c-60fps.mkv</property>
  <property name="audio_index">1</property>
  <property name="video_index">0</property>
  <property name="mute_on_pause">0</property>
  <property name="mlt_service">avformat-novalidate</property>
  <property name="seekable">1</property>
  <property name="aspect_ratio">1</property>
  <property name="kdenlive:clipname">01-c-60fps.mkv</property>
  <property name="kdenlive:folderid">15</property>
  <property name="kdenlive:id">6</property>
  <property name="kdenlive:file_size">20549297</property>
  <property name="global_feed">1</property>
  <property name="kdenlive:audio_max">13</property>
  <property name="meta.media.nb_streams">1</property>
  <property name="meta.media.0.stream.type">video</property>
  <property name="meta.media.0.stream.frame_rate">60</property>
  <property name="meta.media.0.stream.sample_aspect_ratio">1</property>
  <property name="meta.media.0.codec.width">656</property>
  <property name="meta.media.0.codec.height">480</property>
  <property name="meta.media.0.codec.rotate">0</property>
  <property name="meta.media.0.codec.frame_rate">60</property>
  <property name="meta.media.0.codec.pix_fmt">yuv420p</property>
  <property name="meta.media.0.codec.sample_aspect_ratio">1</property>
  <property name="meta.media.0.codec.colorspace">601</property>
  <property name="meta.media.0.codec.name">h264</property>
  <property name="meta.media.0.codec.long_name">H.264 / AVC / MPEG-4 AVC / MPEG-4 part 10</property>
  <property name="meta.media.0.codec.bit_rate">0</property>
  <property name="meta.attr.0.stream.HANDLER_NAME.markup">ISO Media file produced by Google Inc.</property>
  <property name="meta.attr.0.stream.ENCODER.markup">Lavc58.91.100 libx264</property>
  <property name="meta.attr.0.stream.DURATION.markup">00:03:06.534000000</property>
  <property name="meta.attr.MINOR_VERSION.markup">0</property>
  <property name="meta.attr.COMPATIBLE_BRANDS.markup">iso6avc1mp41</property>
  <property name="meta.attr.MAJOR_BRAND.markup">dash</property>
  <property name="meta.attr.ENCODER.markup">Lavf58.45.100</property>
  <property name="meta.media.sample_aspect_num">1</property>
  <property name="meta.media.sample_aspect_den">1</property>
  <property name="meta.media.frame_rate_num">60</property>
  <property name="meta.media.frame_rate_den">1</property>
  <property name="meta.media.colorspace">601</property>
  <property name="meta.media.color_trc">2</property>
  <property name="meta.media.width">656</property>
  <property name="meta.media.height">480</property>
  <property name="meta.media.color_range">mpeg</property>
  <property name="kdenlive:file_hash">3d1f694c90ec5c1079b2514524c83168</property>
  <property name="meta.media.top_field_first">0</property>
  <property name="meta.media.progressive">1</property>
  <property name="meta.media.has_b_frames">2</property>
  <property name="kdenlive:clip_type">2</property>
 </producer>
 <producer id="producer3" in="00:00:00.000" out="00:01:02.967">
  <property name="length">3779</property>
  <property name="eof">pause</property>
  <property name="resource">videos/01-a-60fps.mkv</property>
  <property name="audio_index">1</property>
  <property name="video_index">0</property>
  <property name="mute_on_pause">0</property>
  <property name="mlt_service">avformat-novalidate</property>
  <property name="seekable">1</property>
  <property name="aspect_ratio">1</property>
  <property name="kdenlive:clipname">01-a-60fps.mkv</property>
  <property name="kdenlive:folderid">15</property>
  <property name="kdenlive:id">7</property>
  <property name="kdenlive:file_size">6036093</property>
  <property name="global_feed">1</property>
  <property name="kdenlive:audio_max">9</property>
  <property name="meta.media.nb_streams">1</property>
  <property name="meta.media.0.stream.type">video</property>
  <property name="meta.media.0.stream.frame_rate">60</property>
  <property name="meta.media.0.stream.sample_aspect_ratio">1</property>
  <property name="meta.media.0.codec.width">656</property>
  <property name="meta.media.0.codec.height">480</property>
  <property name="meta.media.0.codec.rotate">0</property>
  <property name="meta.media.0.codec.frame_rate">60</property>
  <property name="meta.media.0.codec.pix_fmt">yuv420p</property>
  <property name="meta.media.0.codec.sample_aspect_ratio">1</property>
  <property name="meta.media.0.codec.colorspace">601</property>
  <property name="meta.media.0.codec.name">h264</property>
  <property name="meta.media.0.codec.long_name">H.264 / AVC / MPEG-4 AVC / MPEG-4 part 10</property>
  <property name="meta.media.0.codec.bit_rate">0</property>
  <property name="meta.attr.0.stream.HANDLER_NAME.markup">ISO Media file produced by Google Inc.</property>
  <property name="meta.attr.0.stream.ENCODER.markup">Lavc58.91.100 libx264</property>
  <property name="meta.attr.0.stream.DURATION.markup">00:01:02.984000000</property>
  <property name="meta.attr.MINOR_VERSION.markup">0</property>
  <property name="meta.attr.COMPATIBLE_BRANDS.markup">iso6avc1mp41</property>
  <property name="meta.attr.MAJOR_BRAND.markup">dash</property>
  <property name="meta.attr.ENCODER.markup">Lavf58.45.100</property>
  <property name="meta.media.sample_aspect_num">1</property>
  <property name="meta.media.sample_aspect_den">1</property>
  <property name="meta.media.frame_rate_num">60</property>
  <property name="meta.media.frame_rate_den">1</property>
  <property name="meta.media.colorspace">601</property>
  <property name="meta.media.color_trc">2</property>
  <property name="meta.media.width">656</property>
  <property name="meta.media.height">480</property>
  <property name="meta.media.color_range">mpeg</property>
  <property name="kdenlive:file_hash">6757126a1b2b3622d8b7ce44a672763c</property>
  <property name="meta.media.top_field_first">0</property>
  <property name="meta.media.progressive">1</property>
  <property name="meta.media.has_b_frames">2</property>
  <property name="kdenlive:clip_type">2</property>
 </producer>
 <producer id="producer4" in="00:00:00.000" out="00:00:57.983">
  <property name="length">3480</property>
  <property name="eof">pause</property>
  <property name="resource">videos/01-b-60fps.mkv</property>
  <property name="audio_index">1</property>
  <property name="video_index">0</property>
  <property name="mute_on_pause">0</property>
  <property name="mlt_service">avformat-novalidate</property>
  <property name="seekable">1</property>
  <property name="aspect_ratio">1</property>
  <property name="kdenlive:clipname">01-b-60fps.mkv</property>
  <property name="kdenlive:folderid">15</property>
  <property name="kdenlive:id">8</property>
  <property name="kdenlive:file_size">6368870</property>
  <property name="global_feed">1</property>
  <property name="kdenlive:audio_max">8</property>
  <property name="meta.media.nb_streams">1</property>
  <property name="meta.media.0.stream.type">video</property>
  <property name="meta.media.0.stream.frame_rate">60</property>
  <property name="meta.media.0.stream.sample_aspect_ratio">1</property>
  <property name="meta.media.0.codec.width">656</property>
  <property name="meta.media.0.codec.height">480</property>
  <property name="meta.media.0.codec.rotate">0</property>
  <property name="meta.media.0.codec.frame_rate">60</property>
  <property name="meta.media.0.codec.pix_fmt">yuv420p</property>
  <property name="meta.media.0.codec.sample_aspect_ratio">1</property>
  <property name="meta.media.0.codec.colorspace">601</property>
  <property name="meta.media.0.codec.name">h264</property>
  <property name="meta.media.0.codec.long_name">H.264 / AVC / MPEG-4 AVC / MPEG-4 part 10</property>
  <property name="meta.media.0.codec.bit_rate">0</property>
  <property name="meta.attr.0.stream.HANDLER_NAME.markup">ISO Media file produced by Google Inc.</property>
  <property name="meta.attr.0.stream.ENCODER.markup">Lavc58.91.100 libx264</property>
  <property name="meta.attr.0.stream.DURATION.markup">00:00:58.000000000</property>
  <property name="meta.attr.MINOR_VERSION.markup">0</property>
  <property name="meta.attr.COMPATIBLE_BRANDS.markup">iso6avc1mp41</property>
  <property name="meta.attr.MAJOR_BRAND.markup">dash</property>
  <property name="meta.attr.ENCODER.markup">Lavf58.45.100</property>
  <property name="meta.media.sample_aspect_num">1</property>
  <property name="meta.media.sample_aspect_den">1</property>
  <property name="meta.media.frame_rate_num">60</property>
  <property name="meta.media.frame_rate_den">1</property>
  <property name="meta.media.colorspace">601</property>
  <property name="meta.media.color_trc">2</property>
  <property name="meta.media.width">656</property>
  <property name="meta.media.height">480</property>
  <property name="meta.media.color_range">mpeg</property>
  <property name="kdenlive:file_hash">f976dc2204c41af45179ec1c3647fbb1</property>
  <property name="meta.media.top_field_first">0</property>
  <property name="meta.media.progressive">1</property>
  <property name="meta.media.has_b_frames">2</property>
  <property name="kdenlive:clip_type">2</property>
 </producer>
 <producer id="producer0" in="00:00:00.000" out="00:00:06.583">
  <property name="length">396</property>
  <property name="eof">pause</property>
  <property name="resource">images/rendered/pazar-gecesi-sinemasi-4k.png</property>
  <property name="ttl">25</property>
  <property name="aspect_ratio">1</property>
  <property name="progressive">1</property>
  <property name="seekable">1</property>
  <property name="meta.media.width">2880</property>
  <property name="meta.media.height">2160</property>
  <property name="mlt_service">qimage</property>
  <property name="kdenlive:clipname"/>
  <property name="kdenlive:duration">00:00:05.000</property>
  <property name="kdenlive:folderid">12</property>
  <property name="kdenlive:id">9</property>
  <property name="kdenlive:file_size">62680</property>
  <property name="kdenlive:file_hash">0d6a24ffd598fa1a5576442d70640542</property>
  <property name="kdenlive:clip_type">2</property>
 </producer>
 <producer id="producer11" in="00:00:00.000" out="00:00:12.083">
  <property name="length">00:00:12.100</property>
  <property name="eof">pause</property>
  <property name="resource">images/rendered/bina-4k-1.png</property>
  <property name="ttl">25</property>
  <property name="aspect_ratio">1</property>
  <property name="progressive">1</property>
  <property name="seekable">1</property>
  <property name="meta.media.width">14400</property>
  <property name="meta.media.height">10800</property>
  <property name="mlt_service">qimage</property>
  <property name="kdenlive:clipname"/>
  <property name="kdenlive:duration">00:00:05.000</property>
  <property name="kdenlive:folderid">17</property>
  <property name="kdenlive:id">10</property>
  <property name="kdenlive:file_size">1815552</property>
  <property name="kdenlive:file_hash">65577b238ccd89649c6b952cdb59040e</property>
  <property name="global_feed">1</property>
  <property name="kdenlive:clip_type">2</property>
 </producer>
 <producer id="producer1" in="00:00:00.000" out="00:00:08.050">
  <property name="length">484</property>
  <property name="eof">pause</property>
  <property name="resource">images/rendered/parliament-cinema-club-4k.png</property>
  <property name="ttl">25</property>
  <property name="aspect_ratio">1</property>
  <property name="progressive">1</property>
  <property name="seekable">1</property>
  <property name="meta.media.width">2880</property>
  <property name="meta.media.height">2160</property>
  <property name="mlt_service">qimage</property>
  <property name="kdenlive:clipname"/>
  <property name="kdenlive:duration">00:00:05.000</property>
  <property name="kdenlive:folderid">12</property>
  <property name="kdenlive:id">11</property>
  <property name="kdenlive:file_size">121882</property>
  <property name="kdenlive:file_hash">3786a9892268d6e3b9967f5cfa17aeb0</property>
  <property name="kdenlive:clip_type">2</property>
 </producer>
 <producer id="producer5" in="00:00:00.000" out="00:00:12.083">
  <property name="length">00:00:12.100</property>
  <property name="eof">pause</property>
  <property name="resource">images/rendered/sehir-siluet-4k.png</property>
  <property name="ttl">25</property>
  <property name="aspect_ratio">1</property>
  <property name="progressive">1</property>
  <property name="seekable">1</property>
  <property name="meta.media.width">3840</property>
  <property name="meta.media.height">1286</property>
  <property name="mlt_service">qimage</property>
  <property name="kdenlive:clipname"/>
  <property name="kdenlive:duration">00:00:05.000</property>
  <property name="kdenlive:folderid">12</property>
  <property name="kdenlive:id">13</property>
  <property name="kdenlive:file_size">673139</property>
  <property name="kdenlive:file_hash">a9296b5e2289e6f70716990eb209ae80</property>
  <property name="global_feed">1</property>
  <property name="kdenlive:clip_type">2</property>
 </producer>
 <producer id="producer6" in="00:00:00.000" out="00:00:07.417">
  <property name="length">00:00:07.433</property>
  <property name="eof">pause</property>
  <property name="resource">images/rendered/camdan-yansiyan-gokdelenler-3d-4k.png</property>
  <property name="ttl">25</property>
  <property name="aspect_ratio">1</property>
  <property name="progressive">1</property>
  <property name="seekable">1</property>
  <property name="meta.media.width">1716</property>
  <property name="meta.media.height">699</property>
  <property name="mlt_service">qimage</property>
  <property name="kdenlive:clipname"/>
  <property name="kdenlive:duration">00:00:05.000</property>
  <property name="kdenlive:folderid">12</property>
  <property name="kdenlive:id">14</property>
  <property name="kdenlive:file_size">494860</property>
  <property name="global_feed">1</property>
  <property name="kdenlive:clip_type">2</property>
  <property name="kdenlive:file_hash">e5a9bd2203c9290a65cf008a336eebe5</property>
 </producer>
 <producer id="producer12" in="00:00:00.000" out="00:00:04.983">
  <property name="length">00:00:05.000</property>
  <property name="eof">pause</property>
  <property name="resource">images/rendered/kapi-4k.png</property>
  <property name="ttl">25</property>
  <property name="aspect_ratio">1</property>
  <property name="progressive">1</property>
  <property name="seekable">1</property>
  <property name="meta.media.width">3840</property>
  <property name="meta.media.height">5160</property>
  <property name="mlt_service">qimage</property>
  <property name="kdenlive:clipname"/>
  <property name="kdenlive:duration">00:00:05.000</property>
  <property name="kdenlive:folderid">12</property>
  <property name="kdenlive:id">16</property>
  <property name="kdenlive:file_size">478821</property>
  <property name="kdenlive:file_hash">10c1ccb8537ff36d799526b74d9f150a</property>
  <property name="kdenlive:clip_type">2</property>
 </producer>
 <producer id="producer13" in="00:00:00.000" out="00:00:05.000">
  <property name="length">301</property>
  <property name="eof">pause</property>
  <property name="resource">images/rendered/bina-4k-2.png</property>
  <property name="ttl">25</property>
  <property name="aspect_ratio">1</property>
  <property name="progressive">1</property>
  <property name="seekable">1</property>
  <property name="meta.media.width">14400</property>
  <property name="meta.media.height">10800</property>
  <property name="mlt_service">qimage</property>
  <property name="kdenlive:clipname"/>
  <property name="kdenlive:duration">00:00:05.000</property>
  <property name="kdenlive:folderid">17</property>
  <property name="kdenlive:id">18</property>
  <property name="kdenlive:file_size">1803419</property>
  <property name="kdenlive:file_hash">adc57a2635c87ce039a59ad91250022b</property>
  <property name="kdenlive:clip_type">2</property>
 </producer>
 <producer id="producer14" in="00:00:00.000" out="00:00:04.983">
  <property name="length">00:00:05.000</property>
  <property name="eof">pause</property>
  <property name="resource">images/rendered/bina-4k-3.png</property>
  <property name="ttl">25</property>
  <property name="aspect_ratio">1</property>
  <property name="progressive">1</property>
  <property name="seekable">1</property>
  <property name="meta.media.width">14400</property>
  <property name="meta.media.height">10800</property>
  <property name="mlt_service">qimage</property>
  <property name="kdenlive:clipname"/>
  <property name="kdenlive:duration">00:00:05.000</property>
  <property name="kdenlive:folderid">17</property>
  <property name="kdenlive:id">19</property>
  <property name="kdenlive:file_size">1809007</property>
  <property name="kdenlive:file_hash">caefb273f1a784a1f2482f30a153ba55</property>
  <property name="kdenlive:clip_type">2</property>
 </producer>
 <producer id="producer15" in="00:00:00.000" out="00:00:05.017">
  <property name="length">302</property>
  <property name="eof">pause</property>
  <property name="resource">images/rendered/bina-4k-4.png</property>
  <property name="ttl">25</property>
  <property name="aspect_ratio">1</property>
  <property name="progressive">1</property>
  <property name="seekable">1</property>
  <property name="meta.media.width">14400</property>
  <property name="meta.media.height">10800</property>
  <property name="mlt_service">qimage</property>
  <property name="kdenlive:clipname"/>
  <property name="kdenlive:duration">00:00:05.000</property>
  <property name="kdenlive:folderid">17</property>
  <property name="kdenlive:id">20</property>
  <property name="kdenlive:file_size">1818811</property>
  <property name="kdenlive:file_hash">225f1c019296662fa3efe0e1c81c6415</property>
  <property name="kdenlive:clip_type">2</property>
 </producer>
 <producer id="producer16" in="00:00:00.000" out="00:00:04.983">
  <property name="length">00:00:05.000</property>
  <property name="eof">pause</property>
  <property name="resource">images/rendered/bina-4k-5.png</property>
  <property name="ttl">25</property>
  <property name="aspect_ratio">1</property>
  <property name="progressive">1</property>
  <property name="seekable">1</property>
  <property name="meta.media.width">14400</property>
  <property name="meta.media.height">10800</property>
  <property name="mlt_service">qimage</property>
  <property name="kdenlive:clipname"/>
  <property name="kdenlive:duration">00:00:05.000</property>
  <property name="kdenlive:folderid">17</property>
  <property name="kdenlive:id">21</property>
  <property name="kdenlive:file_size">1812164</property>
  <property name="kdenlive:file_hash">52e908bd0c7f2b9bb83a0aa159bd4dc4</property>
  <property name="kdenlive:clip_type">2</property>
 </producer>
 <producer id="producer17" in="00:00:00.000" out="00:00:04.983">
  <property name="length">00:00:05.000</property>
  <property name="eof">pause</property>
  <property name="resource">images/rendered/bina-4k-6.png</property>
  <property name="ttl">25</property>
  <property name="aspect_ratio">1</property>
  <property name="progressive">1</property>
  <property name="seekable">1</property>
  <property name="meta.media.width">14400</property>
  <property name="meta.media.height">10800</property>
  <property name="mlt_service">qimage</property>
  <property name="kdenlive:clipname"/>
  <property name="kdenlive:duration">00:00:05.000</property>
  <property name="kdenlive:folderid">17</property>
  <property name="kdenlive:id">22</property>
  <property name="kdenlive:file_size">1804776</property>
  <property name="kdenlive:file_hash">788145b4c553fcb792a663102d186d8a</property>
  <property name="kdenlive:clip_type">2</property>
 </producer>
 <producer id="producer18" in="00:00:00.000" out="00:00:04.983">
  <property name="length">00:00:05.000</property>
  <property name="eof">pause</property>
  <property name="resource">images/rendered/bina-4k-7.png</property>
  <property name="ttl">25</property>
  <property name="aspect_ratio">1</property>
  <property name="progressive">1</property>
  <property name="seekable">1</property>
  <property name="meta.media.width">14400</property>
  <property name="meta.media.height">10800</property>
  <property name="mlt_service">qimage</property>
  <property name="kdenlive:clipname"/>
  <property name="kdenlive:duration">00:00:05.000</property>
  <property name="kdenlive:folderid">17</property>
  <property name="kdenlive:id">23</property>
  <property name="kdenlive:file_size">1798622</property>
  <property name="kdenlive:file_hash">a5ccbe149897dfa3f2ca47df5ba863e9</property>
  <property name="kdenlive:clip_type">2</property>
 </producer>
 <producer id="producer19" in="00:00:00.000" out="00:00:04.983">
  <property name="length">00:00:05.000</property>
  <property name="eof">pause</property>
  <property name="resource">images/rendered/bina-4k-8.png</property>
  <property name="ttl">25</property>
  <property name="aspect_ratio">1</property>
  <property name="progressive">1</property>
  <property name="seekable">1</property>
  <property name="meta.media.width">14400</property>
  <property name="meta.media.height">10800</property>
  <property name="mlt_service">qimage</property>
  <property name="kdenlive:clipname"/>
  <property name="kdenlive:duration">00:00:05.000</property>
  <property name="kdenlive:folderid">17</property>
  <property name="kdenlive:id">24</property>
  <property name="kdenlive:file_size">1783372</property>
  <property name="kdenlive:file_hash">3a82c29ee5aaa05c0735952610af829d</property>
  <property name="kdenlive:clip_type">2</property>
 </producer>
 <producer id="producer20" in="00:00:00.000" out="00:00:04.983">
  <property name="length">00:00:05.000</property>
  <property name="eof">pause</property>
  <property name="resource">images/rendered/bina-4k-9.png</property>
  <property name="ttl">25</property>
  <property name="aspect_ratio">1</property>
  <property name="progressive">1</property>
  <property name="seekable">1</property>
  <property name="meta.media.width">14400</property>
  <property name="meta.media.height">10800</property>
  <property name="mlt_service">qimage</property>
  <property name="kdenlive:clipname"/>
  <property name="kdenlive:duration">00:00:05.000</property>
  <property name="kdenlive:folderid">17</property>
  <property name="kdenlive:id">25</property>
  <property name="kdenlive:file_size">1808890</property>
  <property name="kdenlive:file_hash">6327f64a8b6369aec1b58e27c208f16d</property>
  <property name="kdenlive:clip_type">2</property>
 </producer>
 <producer id="producer21" in="00:00:00.000" out="00:00:04.983">
  <property name="length">00:00:05.000</property>
  <property name="eof">pause</property>
  <property name="resource">images/rendered/bina-4k-10.png</property>
  <property name="ttl">25</property>
  <property name="aspect_ratio">1</property>
  <property name="progressive">1</property>
  <property name="seekable">1</property>
  <property name="meta.media.width">14400</property>
  <property name="meta.media.height">10800</property>
  <property name="mlt_service">qimage</property>
  <property name="kdenlive:clipname"/>
  <property name="kdenlive:duration">00:00:05.000</property>
  <property name="kdenlive:folderid">17</property>
  <property name="kdenlive:id">26</property>
  <property name="kdenlive:file_size">1817627</property>
  <property name="kdenlive:file_hash">8fee20e544911a9e8056d26f2eedea7d</property>
  <property name="kdenlive:clip_type">2</property>
 </producer>
 <producer id="producer22" in="00:00:00.000" out="00:03:51.700">
  <property name="length">13903</property>
  <property name="eof">pause</property>
  <property name="resource">audio/Karla Bonoff - All My Life.mp3</property>
  <property name="meta.media.nb_streams">1</property>
  <property name="meta.media.0.stream.type">audio</property>
  <property name="meta.media.0.codec.sample_fmt">fltp</property>
  <property name="meta.media.0.codec.sample_rate">44100</property>
  <property name="meta.media.0.codec.channels">2</property>
  <property name="meta.media.0.codec.name">mp3float</property>
  <property name="meta.media.0.codec.long_name">MP3 (MPEG audio layer 3)</property>
  <property name="meta.media.0.codec.bit_rate">320000</property>
  <property name="meta.attr.title.markup">All My Life</property>
  <property name="meta.attr.artist.markup">Karla Bonoff</property>
  <property name="meta.attr.GN_ExtData.markup">GNXDWEcxAcLzY64Qdgu3jqHmxKe5T/jH7ry6nzgOFM+A4fL1HpsRD6Ap2CX1oKoxJL+Z8qwkbx2D+iFR4KcSGCirWYqbBa80kw7fhm+0hX9X+/A7ba63Z95Mt75UCo9BZcQzPaR0Lo4=</property>
  <property name="meta.attr.genre.markup">Folk</property>
  <property name="meta.attr.album.markup">New World</property>
  <property name="meta.attr.track.markup">4/12</property>
  <property name="meta.attr.album_artist.markup">Karla Bonoff</property>
  <property name="meta.attr.disc.markup">1/1</property>
  <property name="meta.attr.date.markup">1988</property>
  <property name="seekable">1</property>
  <property name="audio_index">0</property>
  <property name="video_index">-1</property>
  <property name="mute_on_pause">1</property>
  <property name="mlt_service">avformat</property>
  <property name="kdenlive:clipname"/>
  <property name="kdenlive:folderid">30</property>
  <property name="kdenlive:id">27</property>
  <property name="kdenlive:file_size">9300680</property>
  <property name="kdenlive:file_hash">aba9f4336ad6d6ab143ccf7a2672f64e</property>
  <property name="global_feed">1</property>
  <property name="kdenlive:audio_max">6</property>
  <property name="kdenlive:clip_type">1</property>
  <property name="kdenlive:audio_max0">219</property>
 </producer>
 <producer id="producer23" in="00:00:00.000" out="00:00:03.867">
  <property name="length">233</property>
  <property name="eof">pause</property>
  <property name="resource">audio/konusma.wav</property>
  <property name="meta.media.nb_streams">1</property>
  <property name="meta.media.0.stream.type">audio</property>
  <property name="meta.media.0.codec.sample_fmt">s16</property>
  <property name="meta.media.0.codec.sample_rate">48000</property>
  <property name="meta.media.0.codec.channels">2</property>
  <property name="meta.media.0.codec.name">pcm_s16le</property>
  <property name="meta.media.0.codec.long_name">PCM signed 16-bit little-endian</property>
  <property name="meta.media.0.codec.bit_rate">1536000</property>
  <property name="meta.attr.title.markup">All My Life</property>
  <property name="meta.attr.album.markup">New World</property>
  <property name="meta.attr.artist.markup">Karla Bonoff</property>
  <property name="meta.attr.date.markup">1988</property>
  <property name="meta.attr.genre.markup">Folk</property>
  <property name="meta.attr.track.markup">4/12</property>
  <property name="seekable">1</property>
  <property name="audio_index">0</property>
  <property name="video_index">-1</property>
  <property name="mute_on_pause">1</property>
  <property name="mlt_service">avformat</property>
  <property name="kdenlive:clipname"/>
  <property name="kdenlive:folderid">30</property>
  <property name="kdenlive:id">28</property>
  <property name="kdenlive:file_size">744980</property>
  <property name="kdenlive:file_hash">6d3fee619c78a669eac44fbd1af69430</property>
  <property name="kdenlive:audio_max">1</property>
  <property name="global_feed">1</property>
  <property name="kdenlive:clip_type">1</property>
  <property name="kdenlive:audio_max0">255</property>
 </producer>
 <playlist id="main_bin">
  <property name="kdenlive:folder.-1.12">images</property>
  <property name="kdenlive:folder.-1.15">videos</property>
  <property name="kdenlive:folder.-1.30">music</property>
  <property name="kdenlive:folder.12.17">bina</property>
  <property name="kdenlive:docproperties.activeTrack">6</property>
  <property name="kdenlive:docproperties.audioChannels">2</property>
  <property name="kdenlive:docproperties.audioTarget">-1</property>
  <property name="kdenlive:docproperties.dirtypreviewchunks"/>
  <property name="kdenlive:docproperties.disablepreview">0</property>
  <property name="kdenlive:docproperties.documentid">1608577669843</property>
  <property name="kdenlive:docproperties.enableTimelineZone">1</property>
  <property name="kdenlive:docproperties.enableexternalproxy">0</property>
  <property name="kdenlive:docproperties.enableproxy">0</property>
  <property name="kdenlive:docproperties.externalproxyparams"/>
  <property name="kdenlive:docproperties.generateimageproxy">0</property>
  <property name="kdenlive:docproperties.generateproxy">0</property>
  <property name="kdenlive:docproperties.groups">[
]
</property>
  <property name="kdenlive:docproperties.kdenliveversion">22.04.2</property>
  <property name="kdenlive:docproperties.position">1376</property>
  <property name="kdenlive:docproperties.previewchunks"/>
  <property name="kdenlive:docproperties.previewextension">avi</property>
  <property name="kdenlive:docproperties.previewparameters">f=avi vcodec=mjpeg progressive=1 qscale=1</property>
  <property name="kdenlive:docproperties.profile">uhd_2160p_60</property>
  <property name="kdenlive:docproperties.proxyextension"/>
  <property name="kdenlive:docproperties.proxyimageminsize">2000</property>
  <property name="kdenlive:docproperties.proxyimagesize">800</property>
  <property name="kdenlive:docproperties.proxyminsize">1000</property>
  <property name="kdenlive:docproperties.proxyparams"/>
  <property name="kdenlive:docproperties.proxyresize">640</property>
  <property name="kdenlive:docproperties.renderaudioquality">6</property>
  <property name="kdenlive:docproperties.rendercategory">Ultra-High Definition (4K)</property>
  <property name="kdenlive:docproperties.renderendguide">-1</property>
  <property name="kdenlive:docproperties.renderexportaudio">0</property>
  <property name="kdenlive:docproperties.renderfield">0</property>
  <property name="kdenlive:docproperties.renderguide">0</property>
  <property name="kdenlive:docproperties.rendermode">1</property>
  <property name="kdenlive:docproperties.renderplay">0</property>
  <property name="kdenlive:docproperties.renderpreview">0</property>
  <property name="kdenlive:docproperties.renderprofile">WebM-VP9/Opus (libre)</property>
  <property name="kdenlive:docproperties.renderquality">23</property>
  <property name="kdenlive:docproperties.renderratio">1</property>
  <property name="kdenlive:docproperties.renderrescale">0</property>
  <property name="kdenlive:docproperties.renderrescaleheight">720</property>
  <property name="kdenlive:docproperties.renderrescalewidth">1280</property>
  <property name="kdenlive:docproperties.renderscanning">0</property>
  <property name="kdenlive:docproperties.renderspeed">6</property>
  <property name="kdenlive:docproperties.renderstartguide">-1</property>
  <property name="kdenlive:docproperties.rendertcoverlay">0</property>
  <property name="kdenlive:docproperties.rendertctype">-1</property>
  <property name="kdenlive:docproperties.rendertwopass">0</property>
  <property name="kdenlive:docproperties.renderurl">/home/emrepiskin/zon30-1.webm</property>
  <property name="kdenlive:docproperties.renderzone">1</property>
  <property name="kdenlive:docproperties.scrollPos">0</property>
  <property name="kdenlive:docproperties.seekOffset">30000</property>
  <property name="kdenlive:docproperties.version">1.04</property>
  <property name="kdenlive:docproperties.verticalzoom">1</property>
  <property name="kdenlive:docproperties.videoTarget">-1</property>
  <property name="kdenlive:docproperties.zonein">900</property>
  <property name="kdenlive:docproperties.zoneout">1500</property>
  <property name="kdenlive:docproperties.zoom">8</property>
  <property name="kdenlive:expandedFolders">15;30</property>
  <property name="kdenlive:documentnotes"/>
  <property name="xml_retain">1</property>
  <entry producer="producer2" in="00:00:00.000" out="00:00:46.167"/>
  <entry producer="producer9" in="00:00:00.000" out="00:00:59.500"/>
  <entry producer="producer10" in="00:00:00.000" out="00:00:59.500"/>
  <entry producer="producer7" in="00:00:00.000" out="00:00:46.617"/>
  <entry producer="producer8" in="00:00:00.000" out="00:03:06.517"/>
  <entry producer="producer3" in="00:00:00.000" out="00:01:02.967"/>
  <entry producer="producer4" in="00:00:00.000" out="00:00:57.983"/>
  <entry producer="producer0" in="00:00:00.000" out="00:00:06.583"/>
  <entry producer="producer11" in="00:00:00.000" out="00:00:12.083"/>
  <entry producer="producer1" in="00:00:00.000" out="00:00:08.050"/>
  <entry producer="producer5" in="00:00:00.000" out="00:00:12.083"/>
  <entry producer="producer6" in="00:00:00.000" out="00:00:07.417"/>
  <entry producer="producer12" in="00:00:00.000" out="00:00:04.983"/>
  <entry producer="producer13" in="00:00:00.000" out="00:00:05.000"/>
  <entry producer="producer14" in="00:00:00.000" out="00:00:04.983"/>
  <entry producer="producer15" in="00:00:00.000" out="00:00:05.017"/>
  <entry producer="producer16" in="00:00:00.000" out="00:00:04.983"/>
  <entry producer="producer17" in="00:00:00.000" out="00:00:04.983"/>
  <entry producer="producer18" in="00:00:00.000" out="00:00:04.983"/>
  <entry producer="producer19" in="00:00:00.000" out="00:00:04.983"/>
  <entry producer="producer20" in="00:00:00.000" out="00:00:04.983"/>
  <entry producer="producer21" in="00:00:00.000" out="00:00:04.983"/>
  <entry producer="producer22" in="00:00:00.000" out="00:03:51.700"/>
  <entry producer="producer23" in="00:00:00.000" out="00:00:03.867"/>
 </playlist>
 <producer id="black_track" in="00:00:00.000" out="00:09:06.183">
  <property name="length">2147483647</property>
  <property name="eof">continue</property>
  <property name="resource">black</property>
  <property name="aspect_ratio">1</property>
  <property name="mlt_service">color</property>
  <property name="mlt_image_format">rgba</property>
  <property name="set.test_audio">0</property>
 </producer>
 <producer id="producer24" in="00:00:00.000" out="00:03:51.700">
  <property name="length">13903</property>
  <property name="eof">pause</property>
  <property name="resource">audio/Karla Bonoff - All My Life.mp3</property>
  <property name="audio_index">0</property>
  <property name="video_index">-1</property>
  <property name="mute_on_pause">0</property>
  <property name="mlt_service">avformat-novalidate</property>
  <property name="meta.media.nb_streams">1</property>
  <property name="meta.media.0.stream.type">audio</property>
  <property name="meta.media.0.codec.sample_fmt">fltp</property>
  <property name="meta.media.0.codec.sample_rate">44100</property>
  <property name="meta.media.0.codec.channels">2</property>
  <property name="meta.media.0.codec.name">mp3float</property>
  <property name="meta.media.0.codec.long_name">MP3 (MPEG audio layer 3)</property>
  <property name="meta.media.0.codec.bit_rate">320000</property>
  <property name="meta.attr.title.markup">All My Life</property>
  <property name="meta.attr.artist.markup">Karla Bonoff</property>
  <property name="meta.attr.GN_ExtData.markup">GNXDWEcxAcLzY64Qdgu3jqHmxKe5T/jH7ry6nzgOFM+A4fL1HpsRD6Ap2CX1oKoxJL+Z8qwkbx2D+iFR4KcSGCirWYqbBa80kw7fhm+0hX9X+/A7ba63Z95Mt75UCo9BZcQzPaR0Lo4=</property>
  <property name="meta.attr.genre.markup">Folk</property>
  <property name="meta.attr.album.markup">New World</property>
  <property name="meta.attr.track.markup">4/12</property>
  <property name="meta.attr.album_artist.markup">Karla Bonoff</property>
  <property name="meta.attr.disc.markup">1/1</property>
  <property name="meta.attr.date.markup">1988</property>
  <property name="seekable">1</property>
  <property name="kdenlive:clipname"/>
  <property name="kdenlive:folderid">30</property>
  <property name="kdenlive:id">27</property>
  <property name="kdenlive:file_size">9300680</property>
  <property name="kdenlive:file_hash">aba9f4336ad6d6ab143ccf7a2672f64e</property>
  <property name="global_feed">1</property>
  <property name="xml">was here</property>
  <property name="set.test_audio">0</property>
  <property name="set.test_image">1</property>
 </producer>
 <playlist id="playlist0">
  <property name="kdenlive:audio_track">1</property>
  <entry producer="producer24" in="00:00:14.050" out="00:01:00.217">
   <property name="kdenlive:id">27</property>
   <property name="kdenlive:activeeffect">1</property>
   <filter id="filter0" in="00:00:57.217" out="00:01:00.217">
    <property name="window">75</property>
    <property name="max_gain">20dB</property>
    <property name="mlt_service">volume</property>
    <property name="kdenlive_id">fadeout</property>
    <property name="gain">1</property>
    <property name="end">0</property>
    <property name="kdenlive:collapsed">0</property>
   </filter>
   <filter id="filter1">
    <property name="window">75</property>
    <property name="max_gain">20dB</property>
    <property name="level">00:00:14.050=0;00:00:53.183=0;00:00:53.633=-5</property>
    <property name="mlt_service">volume</property>
    <property name="kdenlive_id">volume</property>
    <property name="kdenlive:collapsed">0</property>
    <property name="disable">0</property>
   </filter>
  </entry>
 </playlist>
 <playlist id="playlist1">
  <property name="kdenlive:audio_track">1</property>
 </playlist>
 <tractor id="tractor0" in="00:00:00.000" out="00:00:46.167">
  <property name="kdenlive:audio_track">1</property>
  <property name="kdenlive:trackheight">67</property>
  <property name="kdenlive:timeline_active">1</property>
  <property name="kdenlive:collapsed">28</property>
  <property name="kdenlive:thumbs_format"/>
  <property name="kdenlive:audio_rec"/>
  <property name="kdenlive:locked_track">1</property>
  <track hide="video" producer="playlist0"/>
  <track hide="video" producer="playlist1"/>
  <filter id="filter3">
   <property name="window">75</property>
   <property name="max_gain">20dB</property>
   <property name="mlt_service">volume</property>
   <property name="internal_added">237</property>
   <property name="disable">1</property>
  </filter>
  <filter id="filter4">
   <property name="channel">-1</property>
   <property name="mlt_service">panner</property>
   <property name="internal_added">237</property>
   <property name="start">0.5</property>
   <property name="disable">1</property>
  </filter>
  <filter id="filter2">
   <property name="iec_scale">0</property>
   <property name="mlt_service">audiolevel</property>
   <property name="peak">1</property>
   <property name="disable">1</property>
  </filter>
 </tractor>
 <producer id="producer25" in="00:00:00.000" out="00:00:03.867">
  <property name="length">233</property>
  <property name="eof">pause</property>
  <property name="resource">audio/konusma.wav</property>
  <property name="audio_index">0</property>
  <property name="video_index">-1</property>
  <property name="mute_on_pause">0</property>
  <property name="mlt_service">avformat-novalidate</property>
  <property name="meta.media.nb_streams">1</property>
  <property name="meta.media.0.stream.type">audio</property>
  <property name="meta.media.0.codec.sample_fmt">s16</property>
  <property name="meta.media.0.codec.sample_rate">48000</property>
  <property name="meta.media.0.codec.channels">2</property>
  <property name="meta.media.0.codec.name">pcm_s16le</property>
  <property name="meta.media.0.codec.long_name">PCM signed 16-bit little-endian</property>
  <property name="meta.media.0.codec.bit_rate">1536000</property>
  <property name="meta.attr.title.markup">All My Life</property>
  <property name="meta.attr.album.markup">New World</property>
  <property name="meta.attr.artist.markup">Karla Bonoff</property>
  <property name="meta.attr.date.markup">1988</property>
  <property name="meta.attr.genre.markup">Folk</property>
  <property name="meta.attr.track.markup">4/12</property>
  <property name="seekable">1</property>
  <property name="kdenlive:clipname"/>
  <property name="kdenlive:folderid">30</property>
  <property name="kdenlive:id">28</property>
  <property name="kdenlive:file_size">744980</property>
  <property name="kdenlive:file_hash">6d3fee619c78a669eac44fbd1af69430</property>
  <property name="kdenlive:audio_max">1</property>
  <property name="global_feed">1</property>
  <property name="xml">was here</property>
  <property name="set.test_audio">0</property>
  <property name="set.test_image">1</property>
 </producer>
 <playlist id="playlist2">
  <property name="kdenlive:audio_track">1</property>
  <blank length="00:00:39.583"/>
  <entry producer="producer25" in="00:00:00.000" out="00:00:03.867">
   <property name="kdenlive:id">28</property>
  </entry>
 </playlist>
 <playlist id="playlist3">
  <property name="kdenlive:audio_track">1</property>
 </playlist>
 <tractor id="tractor1" in="00:00:00.000" out="00:00:43.450">
  <property name="kdenlive:audio_track">1</property>
  <property name="kdenlive:trackheight">69</property>
  <property name="kdenlive:timeline_active">1</property>
  <property name="kdenlive:collapsed">28</property>
  <property name="kdenlive:thumbs_format"/>
  <property name="kdenlive:audio_rec"/>
  <property name="kdenlive:locked_track">1</property>
  <track hide="video" producer="playlist2"/>
  <track hide="video" producer="playlist3"/>
  <filter id="filter5">
   <property name="window">75</property>
   <property name="max_gain">20dB</property>
   <property name="mlt_service">volume</property>
   <property name="internal_added">237</property>
   <property name="disable">1</property>
  </filter>
  <filter id="filter6">
   <property name="channel">-1</property>
   <property name="mlt_service">panner</property>
   <property name="internal_added">237</property>
   <property name="start">0.5</property>
   <property name="disable">1</property>
  </filter>
  <filter id="filter7">
   <property name="iec_scale">0</property>
   <property name="mlt_service">audiolevel</property>
   <property name="peak">1</property>
   <property name="disable">1</property>
  </filter>
 </tractor>
 <producer id="producer26" in="00:00:00.000" out="00:00:46.167">
  <property name="length">2771</property>
  <property name="eof">pause</property>
  <property name="resource">videos-original/Parliament Sinema Kulübü - Pazar Gecesi Sineması - Star Tv - 240p.mkv</property>
  <property name="audio_index">1</property>
  <property name="video_index">0</property>
  <property name="mute_on_pause">0</property>
  <property name="mlt_service">avformat-novalidate</property>
  <property name="seekable">1</property>
  <property name="aspect_ratio">1</property>
  <property name="kdenlive:clipname"/>
  <property name="kdenlive:folderid">15</property>
  <property name="kdenlive:id">2</property>
  <property name="kdenlive:file_size">1470189</property>
  <property name="kdenlive:file_hash">36748da51f6a50180f2ca7f39bd9909f</property>
  <property name="global_feed">1</property>
  <property name="kdenlive:audio_max">1</property>
  <property name="kdenlive:clip_type">0</property>
  <property name="xml">was here</property>
  <property name="meta.media.nb_streams">2</property>
  <property name="meta.media.0.stream.type">video</property>
  <property name="meta.media.0.stream.frame_rate">25</property>
  <property name="meta.media.0.stream.sample_aspect_ratio">1</property>
  <property name="meta.media.0.codec.width">320</property>
  <property name="meta.media.0.codec.height">240</property>
  <property name="meta.media.0.codec.rotate">0</property>
  <property name="meta.media.0.codec.frame_rate">25</property>
  <property name="meta.media.0.codec.pix_fmt">yuv420p</property>
  <property name="meta.media.0.codec.sample_aspect_ratio">1</property>
  <property name="meta.media.0.codec.colorspace">601</property>
  <property name="meta.media.0.codec.name">h264</property>
  <property name="meta.media.0.codec.long_name">H.264 / AVC / MPEG-4 AVC / MPEG-4 part 10</property>
  <property name="meta.media.0.codec.bit_rate">0</property>
  <property name="meta.attr.0.stream.HANDLER_NAME.markup">ISO Media file produced by Google Inc.</property>
  <property name="meta.attr.0.stream.DURATION.markup">00:00:46.160000000</property>
  <property name="meta.media.1.stream.type">audio</property>
  <property name="meta.media.1.codec.sample_fmt">fltp</property>
  <property name="meta.media.1.codec.sample_rate">48000</property>
  <property name="meta.media.1.codec.channels">1</property>
  <property name="meta.media.1.codec.name">opus</property>
  <property name="meta.media.1.codec.long_name">Opus</property>
  <property name="meta.media.1.codec.bit_rate">0</property>
  <property name="meta.attr.1.stream.language.markup">eng</property>
  <property name="meta.attr.1.stream.DURATION.markup">00:00:46.181000000</property>
  <property name="meta.attr.ENCODER.markup">Lavf58.16.100</property>
  <property name="meta.media.sample_aspect_num">1</property>
  <property name="meta.media.sample_aspect_den">1</property>
  <property name="meta.media.frame_rate_num">25</property>
  <property name="meta.media.frame_rate_den">1</property>
  <property name="meta.media.colorspace">601</property>
  <property name="meta.media.color_trc">2</property>
  <property name="meta.media.width">320</property>
  <property name="meta.media.height">240</property>
  <property name="meta.media.color_range">mpeg</property>
  <property name="meta.media.top_field_first">0</property>
  <property name="meta.media.progressive">1</property>
  <property name="meta.media.has_b_frames">1</property>
  <property name="set.test_audio">1</property>
  <property name="set.test_image">1</property>
 </producer>
 <playlist id="playlist4">
  <entry producer="producer26" in="00:00:00.000" out="00:00:04.750">
   <property name="kdenlive:id">2</property>
  </entry>
  <entry producer="producer26" in="00:00:04.767" out="00:00:08.083">
   <property name="kdenlive:id">2</property>
  </entry>
  <entry producer="producer26" in="00:00:08.100" out="00:00:10.950">
   <property name="kdenlive:id">2</property>
  </entry>
  <entry producer="producer26" in="00:00:10.967" out="00:00:13.217">
   <property name="kdenlive:id">2</property>
  </entry>
  <entry producer="producer26" in="00:00:13.233" out="00:00:15.883">
   <property name="kdenlive:id">2</property>
  </entry>
  <entry producer="producer26" in="00:00:15.900" out="00:00:18.733">
   <property name="kdenlive:id">2</property>
  </entry>
  <entry producer="producer26" in="00:00:18.750" out="00:00:20.067">
   <property name="kdenlive:id">2</property>
  </entry>
  <entry producer="producer26" in="00:00:20.083" out="00:00:20.817">
   <property name="kdenlive:id">2</property>
  </entry>
  <entry producer="producer26" in="00:00:20.833" out="00:00:24.517">
   <property name="kdenlive:id">2</property>
  </entry>
  <entry producer="producer26" in="00:00:24.533" out="00:00:25.833">
   <property name="kdenlive:id">2</property>
  </entry>
  <entry producer="producer26" in="00:00:25.850" out="00:00:46.167">
   <property name="kdenlive:id">2</property>
  </entry>
 </playlist>
 <playlist id="playlist5"/>
 <tractor id="tractor2" in="00:00:00.000" out="00:00:46.167">
  <property name="kdenlive:trackheight">67</property>
  <property name="kdenlive:timeline_active">1</property>
  <property name="kdenlive:collapsed">28</property>
  <property name="kdenlive:thumbs_format"/>
  <property name="kdenlive:audio_rec"/>
  <property name="kdenlive:locked_track">1</property>
  <track hide="both" producer="playlist4"/>
  <track hide="both" producer="playlist5"/>
 </tractor>
 <producer id="producer27" in="00:00:00.000" out="00:03:05.983">
  <property name="length">11160</property>
  <property name="eof">pause</property>
  <property name="resource">videos/01 - Cut C.webm</property>
  <property name="audio_index">1</property>
  <property name="video_index">0</property>
  <property name="mute_on_pause">0</property>
  <property name="mlt_service">avformat-novalidate</property>
  <property name="seekable">1</property>
  <property name="aspect_ratio">1</property>
  <property name="kdenlive:clipname"/>
  <property name="kdenlive:folderid">-1</property>
  <property name="kdenlive:id">6</property>
  <property name="kdenlive:file_size">16095572</property>
  <property name="kdenlive:file_hash">f00dc17adca72717322f6dc01a66ed4f</property>
  <property name="global_feed">1</property>
  <property name="xml">was here</property>
  <property name="meta.media.nb_streams">2</property>
  <property name="meta.media.0.stream.type">video</property>
  <property name="meta.media.0.stream.frame_rate">29.872</property>
  <property name="meta.media.0.stream.sample_aspect_ratio">1</property>
  <property name="meta.media.0.codec.width">656</property>
  <property name="meta.media.0.codec.height">480</property>
  <property name="meta.media.0.codec.rotate">0</property>
  <property name="meta.media.0.codec.frame_rate">1000</property>
  <property name="meta.media.0.codec.pix_fmt">yuv420p</property>
  <property name="meta.media.0.codec.sample_aspect_ratio">0</property>
  <property name="meta.media.0.codec.colorspace">601</property>
  <property name="meta.media.0.codec.name">vp9</property>
  <property name="meta.media.0.codec.long_name">Google VP9</property>
  <property name="meta.media.0.codec.bit_rate">0</property>
  <property name="meta.attr.0.stream.DURATION.markup">00:03:05.993000000</property>
  <property name="meta.media.1.stream.type">audio</property>
  <property name="meta.media.1.codec.sample_fmt">fltp</property>
  <property name="meta.media.1.codec.sample_rate">48000</property>
  <property name="meta.media.1.codec.channels">2</property>
  <property name="meta.media.1.codec.name">opus</property>
  <property name="meta.media.1.codec.long_name">Opus</property>
  <property name="meta.media.1.codec.bit_rate">0</property>
  <property name="meta.attr.1.stream.language.markup">eng</property>
  <property name="meta.attr.1.stream.DURATION.markup">00:03:06.007000000</property>
  <property name="meta.attr.ENCODER.markup">Lavf58.29.100</property>
  <property name="meta.media.sample_aspect_num">1</property>
  <property name="meta.media.sample_aspect_den">1</property>
  <property name="meta.media.frame_rate_num">3734</property>
  <property name="meta.media.frame_rate_den">125</property>
  <property name="meta.media.colorspace">601</property>
  <property name="meta.media.color_trc">2</property>
  <property name="meta.media.width">656</property>
  <property name="meta.media.height">480</property>
  <property name="meta.media.color_range">mpeg</property>
  <property name="meta.media.top_field_first">0</property>
  <property name="meta.media.progressive">1</property>
  <property name="set.test_audio">1</property>
  <property name="set.test_image">0</property>
  <property name="meta.media.has_b_frames">0</property>
 </producer>
 <producer id="producer28" in="00:00:00.000" out="00:00:59.583">
  <property name="length">3576</property>
  <property name="eof">pause</property>
  <property name="resource">videos/03.mkv</property>
  <property name="audio_index">0</property>
  <property name="video_index">1</property>
  <property name="mute_on_pause">0</property>
  <property name="mlt_service">avformat-novalidate</property>
  <property name="seekable">1</property>
  <property name="aspect_ratio">1</property>
  <property name="kdenlive:clipname"/>
  <property name="kdenlive:folderid">-1</property>
  <property name="kdenlive:id">4</property>
  <property name="kdenlive:file_size">15017015</property>
  <property name="kdenlive:file_hash">bb148b438bcd4668063e0d493b195bf2</property>
  <property name="global_feed">1</property>
  <property name="xml">was here</property>
  <property name="meta.media.nb_streams">2</property>
  <property name="meta.media.0.stream.type">audio</property>
  <property name="meta.media.0.codec.sample_fmt">fltp</property>
  <property name="meta.media.0.codec.sample_rate">48000</property>
  <property name="meta.media.0.codec.channels">2</property>
  <property name="meta.media.0.codec.name">opus</property>
  <property name="meta.media.0.codec.long_name">Opus</property>
  <property name="meta.media.0.codec.bit_rate">0</property>
  <property name="meta.attr.0.stream.language.markup">eng</property>
  <property name="meta.attr.0.stream.DURATION.markup">00:00:59.601000000</property>
  <property name="meta.media.1.stream.type">video</property>
  <property name="meta.media.1.stream.frame_rate">29.836</property>
  <property name="meta.media.1.stream.sample_aspect_ratio">1</property>
  <property name="meta.media.1.codec.width">1280</property>
  <property name="meta.media.1.codec.height">720</property>
  <property name="meta.media.1.codec.rotate">0</property>
  <property name="meta.media.1.codec.frame_rate">29.836</property>
  <property name="meta.media.1.codec.pix_fmt">yuv420p</property>
  <property name="meta.media.1.codec.sample_aspect_ratio">1</property>
  <property name="meta.media.1.codec.colorspace">709</property>
  <property name="meta.media.1.codec.color_trc">1</property>
  <property name="meta.media.1.codec.name">h264</property>
  <property name="meta.media.1.codec.long_name">H.264 / AVC / MPEG-4 AVC / MPEG-4 part 10</property>
  <property name="meta.media.1.codec.bit_rate">0</property>
  <property name="meta.attr.1.stream.HANDLER_NAME.markup">VideoHandler</property>
  <property name="meta.attr.1.stream.DURATION.markup">00:00:59.526000000</property>
  <property name="meta.attr.ENCODER.markup">Lavf58.45.100</property>
  <property name="meta.media.sample_aspect_num">1</property>
  <property name="meta.media.sample_aspect_den">1</property>
  <property name="meta.media.frame_rate_num">12919</property>
  <property name="meta.media.frame_rate_den">433</property>
  <property name="meta.media.colorspace">709</property>
  <property name="meta.media.color_trc">1</property>
  <property name="meta.media.width">1280</property>
  <property name="meta.media.height">720</property>
  <property name="meta.media.color_range">mpeg</property>
  <property name="meta.media.top_field_first">0</property>
  <property name="meta.media.progressive">1</property>
  <property name="set.test_audio">1</property>
  <property name="set.test_image">0</property>
  <property name="meta.media.has_b_frames">1</property>
 </producer>
 <producer id="producer29" in="00:00:00.000" out="00:00:59.583">
  <property name="length">3576</property>
  <property name="eof">pause</property>
  <property name="resource">videos/02.mkv</property>
  <property name="audio_index">0</property>
  <property name="video_index">1</property>
  <property name="mute_on_pause">0</property>
  <property name="mlt_service">avformat-novalidate</property>
  <property name="seekable">1</property>
  <property name="aspect_ratio">1</property>
  <property name="kdenlive:clipname"/>
  <property name="kdenlive:folderid">-1</property>
  <property name="kdenlive:id">3</property>
  <property name="kdenlive:file_size">14157981</property>
  <property name="kdenlive:file_hash">66a9b396d8a6213db53c57ee1de9b5bc</property>
  <property name="global_feed">1</property>
  <property name="xml">was here</property>
  <property name="meta.media.nb_streams">2</property>
  <property name="meta.media.0.stream.type">audio</property>
  <property name="meta.media.0.codec.sample_fmt">fltp</property>
  <property name="meta.media.0.codec.sample_rate">48000</property>
  <property name="meta.media.0.codec.channels">2</property>
  <property name="meta.media.0.codec.name">opus</property>
  <property name="meta.media.0.codec.long_name">Opus</property>
  <property name="meta.media.0.codec.bit_rate">0</property>
  <property name="meta.attr.0.stream.language.markup">eng</property>
  <property name="meta.attr.0.stream.DURATION.markup">00:00:59.601000000</property>
  <property name="meta.media.1.stream.type">video</property>
  <property name="meta.media.1.stream.frame_rate">29.936</property>
  <property name="meta.media.1.stream.sample_aspect_ratio">1</property>
  <property name="meta.media.1.codec.width">1280</property>
  <property name="meta.media.1.codec.height">720</property>
  <property name="meta.media.1.codec.rotate">0</property>
  <property name="meta.media.1.codec.frame_rate">29.936</property>
  <property name="meta.media.1.codec.pix_fmt">yuv420p</property>
  <property name="meta.media.1.codec.sample_aspect_ratio">1</property>
  <property name="meta.media.1.codec.colorspace">709</property>
  <property name="meta.media.1.codec.color_trc">1</property>
  <property name="meta.media.1.codec.name">h264</property>
  <property name="meta.media.1.codec.long_name">H.264 / AVC / MPEG-4 AVC / MPEG-4 part 10</property>
  <property name="meta.media.1.codec.bit_rate">0</property>
  <property name="meta.attr.1.stream.HANDLER_NAME.markup">VideoHandler</property>
  <property name="meta.attr.1.stream.DURATION.markup">00:00:59.527000000</property>
  <property name="meta.attr.ENCODER.markup">Lavf58.45.100</property>
  <property name="meta.media.sample_aspect_num">1</property>
  <property name="meta.media.sample_aspect_den">1</property>
  <property name="meta.media.frame_rate_num">20117</property>
  <property name="meta.media.frame_rate_den">672</property>
  <property name="meta.media.colorspace">709</property>
  <property name="meta.media.color_trc">1</property>
  <property name="meta.media.width">1280</property>
  <property name="meta.media.height">720</property>
  <property name="meta.media.color_range">mpeg</property>
  <property name="meta.media.top_field_first">0</property>
  <property name="meta.media.progressive">1</property>
  <property name="set.test_audio">1</property>
  <property name="set.test_image">0</property>
  <property name="meta.media.has_b_frames">1</property>
 </producer>
 <producer id="producer30" in="00:00:00.000" out="00:00:58.367">
  <property name="length">3503</property>
  <property name="eof">pause</property>
  <property name="resource">videos/01 - Cut B.webm</property>
  <property name="audio_index">1</property>
  <property name="video_index">0</property>
  <property name="mute_on_pause">0</property>
  <property name="mlt_service">avformat-novalidate</property>
  <property name="seekable">1</property>
  <property name="aspect_ratio">1</property>
  <property name="kdenlive:clipname"/>
  <property name="kdenlive:folderid">-1</property>
  <property name="kdenlive:id">8</property>
  <property name="kdenlive:file_size">4815636</property>
  <property name="kdenlive:file_hash">200ec4447855aba224aeaf7e37c96285</property>
  <property name="global_feed">1</property>
  <property name="xml">was here</property>
  <property name="meta.media.nb_streams">2</property>
  <property name="meta.media.0.stream.type">video</property>
  <property name="meta.media.0.stream.frame_rate">29.872</property>
  <property name="meta.media.0.stream.sample_aspect_ratio">1</property>
  <property name="meta.media.0.codec.width">656</property>
  <property name="meta.media.0.codec.height">480</property>
  <property name="meta.media.0.codec.rotate">0</property>
  <property name="meta.media.0.codec.frame_rate">1000</property>
  <property name="meta.media.0.codec.pix_fmt">yuv420p</property>
  <property name="meta.media.0.codec.sample_aspect_ratio">0</property>
  <property name="meta.media.0.codec.colorspace">601</property>
  <property name="meta.media.0.codec.name">vp9</property>
  <property name="meta.media.0.codec.long_name">Google VP9</property>
  <property name="meta.media.0.codec.bit_rate">0</property>
  <property name="meta.attr.0.stream.DURATION.markup">00:00:58.382000000</property>
  <property name="meta.media.1.stream.type">audio</property>
  <property name="meta.media.1.codec.sample_fmt">fltp</property>
  <property name="meta.media.1.codec.sample_rate">48000</property>
  <property name="meta.media.1.codec.channels">2</property>
  <property name="meta.media.1.codec.name">opus</property>
  <property name="meta.media.1.codec.long_name">Opus</property>
  <property name="meta.media.1.codec.bit_rate">0</property>
  <property name="meta.attr.1.stream.language.markup">eng</property>
  <property name="meta.attr.1.stream.DURATION.markup">00:00:58.384000000</property>
  <property name="meta.attr.ENCODER.markup">Lavf58.29.100</property>
  <property name="meta.media.sample_aspect_num">1</property>
  <property name="meta.media.sample_aspect_den">1</property>
  <property name="meta.media.frame_rate_num">3734</property>
  <property name="meta.media.frame_rate_den">125</property>
  <property name="meta.media.colorspace">601</property>
  <property name="meta.media.color_trc">2</property>
  <property name="meta.media.width">656</property>
  <property name="meta.media.height">480</property>
  <property name="meta.media.color_range">mpeg</property>
  <property name="meta.media.top_field_first">0</property>
  <property name="meta.media.progressive">1</property>
  <property name="set.test_audio">1</property>
  <property name="set.test_image">0</property>
  <property name="meta.media.has_b_frames">0</property>
 </producer>
 <playlist id="playlist6">
  <entry producer="producer27" in="00:02:21.933" out="00:02:27.350">
   <property name="kdenlive:id">6</property>
   <filter id="filter8">
    <property name="noise">10</property>
    <property name="contrast">100</property>
    <property name="brightness">90</property>
    <property name="mlt_service">grain</property>
    <property name="kdenlive_id">grain</property>
    <property name="kdenlive:collapsed">1</property>
    <property name="disable">0</property>
   </filter>
   <filter id="filter9">
    <property name="version">0.2</property>
    <property name="mlt_service">frei0r.sharpness</property>
    <property name="kdenlive_id">frei0r.sharpness</property>
    <property name="Amount">00:02:21.933=0.5</property>
    <property name="Size">00:02:21.933=0.1</property>
    <property name="kdenlive:collapsed">1</property>
    <property name="disable">0</property>
   </filter>
  </entry>
  <blank length="00:00:02.333"/>
  <entry producer="producer27" in="00:01:49.300" out="00:01:52.483">
   <property name="kdenlive:id">6</property>
   <filter id="filter10">
    <property name="noise">10</property>
    <property name="contrast">100</property>
    <property name="brightness">90</property>
    <property name="mlt_service">grain</property>
    <property name="kdenlive_id">grain</property>
    <property name="kdenlive:collapsed">1</property>
    <property name="disable">0</property>
   </filter>
   <filter id="filter11">
    <property name="version">0.2</property>
    <property name="mlt_service">frei0r.sharpness</property>
    <property name="kdenlive_id">frei0r.sharpness</property>
    <property name="Amount">00:01:49.300=0.5</property>
    <property name="Size">00:01:49.300=0.1</property>
    <property name="kdenlive:collapsed">1</property>
    <property name="disable">0</property>
   </filter>
  </entry>
  <blank length="00:00:02.267"/>
  <entry producer="producer28" in="00:00:33.850" out="00:00:36.883">
   <property name="kdenlive:id">4</property>
   <filter id="filter12">
    <property name="noise">10</property>
    <property name="contrast">100</property>
    <property name="brightness">100</property>
    <property name="mlt_service">grain</property>
    <property name="kdenlive_id">grain</property>
    <property name="kdenlive:collapsed">1</property>
    <property name="disable">0</property>
   </filter>
   <filter id="filter13">
    <property name="version">0.2</property>
    <property name="mlt_service">frei0r.sharpness</property>
    <property name="kdenlive_id">frei0r.sharpness</property>
    <property name="Amount">00:00:33.850=0.5</property>
    <property name="Size">00:00:33.850=0.1</property>
    <property name="kdenlive:collapsed">1</property>
    <property name="disable">0</property>
   </filter>
  </entry>
  <blank length="00:00:02.467"/>
  <entry producer="producer29" in="00:00:13.817" out="00:00:15.133">
   <property name="kdenlive:id">3</property>
   <filter id="filter14">
    <property name="noise">10</property>
    <property name="contrast">100</property>
    <property name="brightness">90</property>
    <property name="mlt_service">grain</property>
    <property name="kdenlive_id">grain</property>
    <property name="kdenlive:collapsed">1</property>
    <property name="disable">0</property>
   </filter>
   <filter id="filter15">
    <property name="version">0.2</property>
    <property name="mlt_service">frei0r.sharpness</property>
    <property name="kdenlive_id">frei0r.sharpness</property>
    <property name="Amount">00:00:13.817=0.5</property>
    <property name="Size">00:00:13.817=0.1</property>
    <property name="kdenlive:collapsed">1</property>
    <property name="disable">0</property>
   </filter>
  </entry>
  <blank length="00:00:00.750"/>
  <entry producer="producer30" in="00:00:42.633" out="00:00:46.517">
   <property name="kdenlive:id">8</property>
   <filter id="filter16">
    <property name="noise">10</property>
    <property name="contrast">100</property>
    <property name="brightness">100</property>
    <property name="mlt_service">grain</property>
    <property name="kdenlive_id">grain</property>
    <property name="kdenlive:collapsed">1</property>
    <property name="disable">0</property>
   </filter>
   <filter id="filter17">
    <property name="version">0.2</property>
    <property name="mlt_service">frei0r.sharpness</property>
    <property name="kdenlive_id">frei0r.sharpness</property>
    <property name="Amount">00:00:42.633=0.5</property>
    <property name="Size">00:00:42.633=0.1</property>
    <property name="kdenlive:collapsed">1</property>
    <property name="disable">0</property>
   </filter>
  </entry>
  <blank length="00:00:02.317"/>
  <entry producer="producer5" in="00:00:00.000" out="00:00:12.083">
   <property name="kdenlive:id">13</property>
   <filter id="filter29">
    <property name="rotate_center">2</property>
    <property name="mlt_service">qtblend</property>
    <property name="kdenlive_id">qtblend</property>
    <property name="rect">00:00:00.000=-960 -1190 5760 3240 1.000000;00:00:09.350~=0 -650 3840 2160 1.000000</property>
    <property name="rotation">00:00:00.000=0;00:00:09.350~=0</property>
    <property name="compositing">0</property>
    <property name="distort">0</property>
    <property name="kdenlive:collapsed">1</property>
    <property name="disable">0</property>
   </filter>
   <filter id="filter30" in="00:00:11.083" out="00:00:12.083">
    <property name="start">1</property>
    <property name="level">1</property>
    <property name="mlt_service">brightness</property>
    <property name="kdenlive_id">fade_to_black</property>
    <property name="kdenlive:collapsed">1</property>
    <property name="alpha">00:00:00.000=1;00:00:01.000=0</property>
   </filter>
  </entry>
  <blank length="00:00:00.433"/>
  <entry producer="producer0" in="00:00:00.000" out="00:00:06.583">
   <property name="kdenlive:id">9</property>
   <property name="kdenlive:activeeffect">2</property>
   <filter id="filter27" out="00:00:00.617">
    <property name="start">1</property>
    <property name="level">1</property>
    <property name="mlt_service">brightness</property>
    <property name="kdenlive_id">fade_from_black</property>
    <property name="kdenlive:collapsed">0</property>
    <property name="alpha">00:00:00.000=0;00:00:00.617=1</property>
   </filter>
   <filter id="filter28" in="00:00:05.500" out="00:00:06.583">
    <property name="start">1</property>
    <property name="level">1</property>
    <property name="mlt_service">brightness</property>
    <property name="kdenlive_id">fade_to_black</property>
    <property name="kdenlive:collapsed">0</property>
    <property name="alpha">00:00:00.000=1;00:00:01.083=0</property>
   </filter>
   <filter id="filter18">
    <property name="rotate_center">1</property>
    <property name="mlt_service">qtblend</property>
    <property name="kdenlive_id">qtblend</property>
    <property name="rect">00:00:00.000=0 0 3840 2160 1</property>
    <property name="rotation">00:00:00.000=0</property>
    <property name="compositing">0</property>
    <property name="distort">0</property>
    <property name="kdenlive:collapsed">0</property>
   </filter>
  </entry>
 </playlist>
 <playlist id="playlist7"/>
 <tractor id="tractor3" in="00:00:00.000" out="00:00:46.167">
  <property name="kdenlive:trackheight">67</property>
  <property name="kdenlive:timeline_active">1</property>
  <property name="kdenlive:collapsed">28</property>
  <property name="kdenlive:thumbs_format"/>
  <property name="kdenlive:audio_rec"/>
  <property name="kdenlive:locked_track">1</property>
  <track hide="audio" producer="playlist6"/>
  <track hide="audio" producer="playlist7"/>
 </tractor>
 <producer id="producer31" in="00:00:00.000" out="00:03:05.983">
  <property name="length">11160</property>
  <property name="eof">pause</property>
  <property name="resource">videos/01 - Cut C.webm</property>
  <property name="audio_index">1</property>
  <property name="video_index">0</property>
  <property name="mute_on_pause">0</property>
  <property name="mlt_service">avformat-novalidate</property>
  <property name="seekable">1</property>
  <property name="aspect_ratio">1</property>
  <property name="kdenlive:clipname"/>
  <property name="kdenlive:folderid">-1</property>
  <property name="kdenlive:id">6</property>
  <property name="kdenlive:file_size">16095572</property>
  <property name="kdenlive:file_hash">f00dc17adca72717322f6dc01a66ed4f</property>
  <property name="global_feed">1</property>
  <property name="xml">was here</property>
  <property name="meta.media.nb_streams">2</property>
  <property name="meta.media.0.stream.type">video</property>
  <property name="meta.media.0.stream.frame_rate">29.872</property>
  <property name="meta.media.0.stream.sample_aspect_ratio">1</property>
  <property name="meta.media.0.codec.width">656</property>
  <property name="meta.media.0.codec.height">480</property>
  <property name="meta.media.0.codec.rotate">0</property>
  <property name="meta.media.0.codec.frame_rate">1000</property>
  <property name="meta.media.0.codec.pix_fmt">yuv420p</property>
  <property name="meta.media.0.codec.sample_aspect_ratio">0</property>
  <property name="meta.media.0.codec.colorspace">601</property>
  <property name="meta.media.0.codec.name">vp9</property>
  <property name="meta.media.0.codec.long_name">Google VP9</property>
  <property name="meta.media.0.codec.bit_rate">0</property>
  <property name="meta.attr.0.stream.DURATION.markup">00:03:05.993000000</property>
  <property name="meta.media.1.stream.type">audio</property>
  <property name="meta.media.1.codec.sample_fmt">fltp</property>
  <property name="meta.media.1.codec.sample_rate">48000</property>
  <property name="meta.media.1.codec.channels">2</property>
  <property name="meta.media.1.codec.name">opus</property>
  <property name="meta.media.1.codec.long_name">Opus</property>
  <property name="meta.media.1.codec.bit_rate">0</property>
  <property name="meta.attr.1.stream.language.markup">eng</property>
  <property name="meta.attr.1.stream.DURATION.markup">00:03:06.007000000</property>
  <property name="meta.attr.ENCODER.markup">Lavf58.29.100</property>
  <property name="meta.media.sample_aspect_num">1</property>
  <property name="meta.media.sample_aspect_den">1</property>
  <property name="meta.media.frame_rate_num">3734</property>
  <property name="meta.media.frame_rate_den">125</property>
  <property name="meta.media.colorspace">601</property>
  <property name="meta.media.color_trc">2</property>
  <property name="meta.media.width">656</property>
  <property name="meta.media.height">480</property>
  <property name="meta.media.color_range">mpeg</property>
  <property name="meta.media.top_field_first">0</property>
  <property name="meta.media.progressive">1</property>
  <property name="set.test_audio">1</property>
  <property name="set.test_image">0</property>
  <property name="meta.media.has_b_frames">0</property>
 </producer>
 <producer id="producer32" in="00:00:00.000" out="00:00:59.583">
  <property name="length">3576</property>
  <property name="eof">pause</property>
  <property name="resource">videos/03.mkv</property>
  <property name="audio_index">0</property>
  <property name="video_index">1</property>
  <property name="mute_on_pause">0</property>
  <property name="mlt_service">avformat-novalidate</property>
  <property name="seekable">1</property>
  <property name="aspect_ratio">1</property>
  <property name="kdenlive:clipname"/>
  <property name="kdenlive:folderid">-1</property>
  <property name="kdenlive:id">4</property>
  <property name="kdenlive:file_size">15017015</property>
  <property name="kdenlive:file_hash">bb148b438bcd4668063e0d493b195bf2</property>
  <property name="global_feed">1</property>
  <property name="xml">was here</property>
  <property name="meta.media.nb_streams">2</property>
  <property name="meta.media.0.stream.type">audio</property>
  <property name="meta.media.0.codec.sample_fmt">fltp</property>
  <property name="meta.media.0.codec.sample_rate">48000</property>
  <property name="meta.media.0.codec.channels">2</property>
  <property name="meta.media.0.codec.name">opus</property>
  <property name="meta.media.0.codec.long_name">Opus</property>
  <property name="meta.media.0.codec.bit_rate">0</property>
  <property name="meta.attr.0.stream.language.markup">eng</property>
  <property name="meta.attr.0.stream.DURATION.markup">00:00:59.601000000</property>
  <property name="meta.media.1.stream.type">video</property>
  <property name="meta.media.1.stream.frame_rate">29.836</property>
  <property name="meta.media.1.stream.sample_aspect_ratio">1</property>
  <property name="meta.media.1.codec.width">1280</property>
  <property name="meta.media.1.codec.height">720</property>
  <property name="meta.media.1.codec.rotate">0</property>
  <property name="meta.media.1.codec.frame_rate">29.836</property>
  <property name="meta.media.1.codec.pix_fmt">yuv420p</property>
  <property name="meta.media.1.codec.sample_aspect_ratio">1</property>
  <property name="meta.media.1.codec.colorspace">709</property>
  <property name="meta.media.1.codec.color_trc">1</property>
  <property name="meta.media.1.codec.name">h264</property>
  <property name="meta.media.1.codec.long_name">H.264 / AVC / MPEG-4 AVC / MPEG-4 part 10</property>
  <property name="meta.media.1.codec.bit_rate">0</property>
  <property name="meta.attr.1.stream.HANDLER_NAME.markup">VideoHandler</property>
  <property name="meta.attr.1.stream.DURATION.markup">00:00:59.526000000</property>
  <property name="meta.attr.ENCODER.markup">Lavf58.45.100</property>
  <property name="meta.media.sample_aspect_num">1</property>
  <property name="meta.media.sample_aspect_den">1</property>
  <property name="meta.media.frame_rate_num">12919</property>
  <property name="meta.media.frame_rate_den">433</property>
  <property name="meta.media.colorspace">709</property>
  <property name="meta.media.color_trc">1</property>
  <property name="meta.media.width">1280</property>
  <property name="meta.media.height">720</property>
  <property name="meta.media.color_range">mpeg</property>
  <property name="meta.media.top_field_first">0</property>
  <property name="meta.media.progressive">1</property>
  <property name="set.test_audio">1</property>
  <property name="set.test_image">0</property>
  <property name="meta.media.has_b_frames">1</property>
 </producer>
 <producer id="producer33" in="00:00:00.000" out="00:01:03.433">
  <property name="length">3807</property>
  <property name="eof">pause</property>
  <property name="resource">videos/01 - Cut A.webm</property>
  <property name="audio_index">1</property>
  <property name="video_index">0</property>
  <property name="mute_on_pause">0</property>
  <property name="mlt_service">avformat-novalidate</property>
  <property name="seekable">1</property>
  <property name="aspect_ratio">1</property>
  <property name="kdenlive:clipname"/>
  <property name="kdenlive:folderid">-1</property>
  <property name="kdenlive:id">7</property>
  <property name="kdenlive:file_size">5012429</property>
  <property name="kdenlive:file_hash">d2747a26cd57f4284a9a2aea03309713</property>
  <property name="global_feed">1</property>
  <property name="xml">was here</property>
  <property name="meta.media.nb_streams">2</property>
  <property name="meta.media.0.stream.type">video</property>
  <property name="meta.media.0.stream.frame_rate">29.872</property>
  <property name="meta.media.0.stream.sample_aspect_ratio">1</property>
  <property name="meta.media.0.codec.width">656</property>
  <property name="meta.media.0.codec.height">480</property>
  <property name="meta.media.0.codec.rotate">0</property>
  <property name="meta.media.0.codec.frame_rate">1000</property>
  <property name="meta.media.0.codec.pix_fmt">yuv420p</property>
  <property name="meta.media.0.codec.sample_aspect_ratio">0</property>
  <property name="meta.media.0.codec.colorspace">601</property>
  <property name="meta.media.0.codec.name">vp9</property>
  <property name="meta.media.0.codec.long_name">Google VP9</property>
  <property name="meta.media.0.codec.bit_rate">0</property>
  <property name="meta.attr.0.stream.DURATION.markup">00:01:03.437000000</property>
  <property name="meta.media.1.stream.type">audio</property>
  <property name="meta.media.1.codec.sample_fmt">fltp</property>
  <property name="meta.media.1.codec.sample_rate">48000</property>
  <property name="meta.media.1.codec.channels">2</property>
  <property name="meta.media.1.codec.name">opus</property>
  <property name="meta.media.1.codec.long_name">Opus</property>
  <property name="meta.media.1.codec.bit_rate">0</property>
  <property name="meta.attr.1.stream.language.markup">eng</property>
  <property name="meta.attr.1.stream.DURATION.markup">00:01:03.458000000</property>
  <property name="meta.attr.ENCODER.markup">Lavf58.29.100</property>
  <property name="meta.media.sample_aspect_num">1</property>
  <property name="meta.media.sample_aspect_den">1</property>
  <property name="meta.media.frame_rate_num">3734</property>
  <property name="meta.media.frame_rate_den">125</property>
  <property name="meta.media.colorspace">601</property>
  <property name="meta.media.color_trc">2</property>
  <property name="meta.media.width">656</property>
  <property name="meta.media.height">480</property>
  <property name="meta.media.color_range">mpeg</property>
  <property name="meta.media.top_field_first">0</property>
  <property name="meta.media.progressive">1</property>
  <property name="set.test_audio">1</property>
  <property name="set.test_image">0</property>
  <property name="meta.media.has_b_frames">0</property>
 </producer>
 <producer id="producer34" in="00:00:00.000" out="00:00:58.367">
  <property name="length">3503</property>
  <property name="eof">pause</property>
  <property name="resource">videos/01 - Cut B.webm</property>
  <property name="audio_index">1</property>
  <property name="video_index">0</property>
  <property name="mute_on_pause">0</property>
  <property name="mlt_service">avformat-novalidate</property>
  <property name="seekable">1</property>
  <property name="aspect_ratio">1</property>
  <property name="kdenlive:clipname"/>
  <property name="kdenlive:folderid">-1</property>
  <property name="kdenlive:id">8</property>
  <property name="kdenlive:file_size">4815636</property>
  <property name="kdenlive:file_hash">200ec4447855aba224aeaf7e37c96285</property>
  <property name="global_feed">1</property>
  <property name="xml">was here</property>
  <property name="meta.media.nb_streams">2</property>
  <property name="meta.media.0.stream.type">video</property>
  <property name="meta.media.0.stream.frame_rate">29.872</property>
  <property name="meta.media.0.stream.sample_aspect_ratio">1</property>
  <property name="meta.media.0.codec.width">656</property>
  <property name="meta.media.0.codec.height">480</property>
  <property name="meta.media.0.codec.rotate">0</property>
  <property name="meta.media.0.codec.frame_rate">1000</property>
  <property name="meta.media.0.codec.pix_fmt">yuv420p</property>
  <property name="meta.media.0.codec.sample_aspect_ratio">0</property>
  <property name="meta.media.0.codec.colorspace">601</property>
  <property name="meta.media.0.codec.name">vp9</property>
  <property name="meta.media.0.codec.long_name">Google VP9</property>
  <property name="meta.media.0.codec.bit_rate">0</property>
  <property name="meta.attr.0.stream.DURATION.markup">00:00:58.382000000</property>
  <property name="meta.media.1.stream.type">audio</property>
  <property name="meta.media.1.codec.sample_fmt">fltp</property>
  <property name="meta.media.1.codec.sample_rate">48000</property>
  <property name="meta.media.1.codec.channels">2</property>
  <property name="meta.media.1.codec.name">opus</property>
  <property name="meta.media.1.codec.long_name">Opus</property>
  <property name="meta.media.1.codec.bit_rate">0</property>
  <property name="meta.attr.1.stream.language.markup">eng</property>
  <property name="meta.attr.1.stream.DURATION.markup">00:00:58.384000000</property>
  <property name="meta.attr.ENCODER.markup">Lavf58.29.100</property>
  <property name="meta.media.sample_aspect_num">1</property>
  <property name="meta.media.sample_aspect_den">1</property>
  <property name="meta.media.frame_rate_num">3734</property>
  <property name="meta.media.frame_rate_den">125</property>
  <property name="meta.media.colorspace">601</property>
  <property name="meta.media.color_trc">2</property>
  <property name="meta.media.width">656</property>
  <property name="meta.media.height">480</property>
  <property name="meta.media.color_range">mpeg</property>
  <property name="meta.media.top_field_first">0</property>
  <property name="meta.media.progressive">1</property>
  <property name="set.test_audio">1</property>
  <property name="set.test_image">0</property>
  <property name="meta.media.has_b_frames">0</property>
 </producer>
 <producer id="producer35" in="00:00:00.000" out="00:00:59.583">
  <property name="length">3576</property>
  <property name="eof">pause</property>
  <property name="resource">videos/02.mkv</property>
  <property name="audio_index">0</property>
  <property name="video_index">1</property>
  <property name="mute_on_pause">0</property>
  <property name="mlt_service">avformat-novalidate</property>
  <property name="seekable">1</property>
  <property name="aspect_ratio">1</property>
  <property name="kdenlive:clipname"/>
  <property name="kdenlive:folderid">-1</property>
  <property name="kdenlive:id">3</property>
  <property name="kdenlive:file_size">14157981</property>
  <property name="kdenlive:file_hash">66a9b396d8a6213db53c57ee1de9b5bc</property>
  <property name="global_feed">1</property>
  <property name="xml">was here</property>
  <property name="meta.media.nb_streams">2</property>
  <property name="meta.media.0.stream.type">audio</property>
  <property name="meta.media.0.codec.sample_fmt">fltp</property>
  <property name="meta.media.0.codec.sample_rate">48000</property>
  <property name="meta.media.0.codec.channels">2</property>
  <property name="meta.media.0.codec.name">opus</property>
  <property name="meta.media.0.codec.long_name">Opus</property>
  <property name="meta.media.0.codec.bit_rate">0</property>
  <property name="meta.attr.0.stream.language.markup">eng</property>
  <property name="meta.attr.0.stream.DURATION.markup">00:00:59.601000000</property>
  <property name="meta.media.1.stream.type">video</property>
  <property name="meta.media.1.stream.frame_rate">29.936</property>
  <property name="meta.media.1.stream.sample_aspect_ratio">1</property>
  <property name="meta.media.1.codec.width">1280</property>
  <property name="meta.media.1.codec.height">720</property>
  <property name="meta.media.1.codec.rotate">0</property>
  <property name="meta.media.1.codec.frame_rate">29.936</property>
  <property name="meta.media.1.codec.pix_fmt">yuv420p</property>
  <property name="meta.media.1.codec.sample_aspect_ratio">1</property>
  <property name="meta.media.1.codec.colorspace">709</property>
  <property name="meta.media.1.codec.color_trc">1</property>
  <property name="meta.media.1.codec.name">h264</property>
  <property name="meta.media.1.codec.long_name">H.264 / AVC / MPEG-4 AVC / MPEG-4 part 10</property>
  <property name="meta.media.1.codec.bit_rate">0</property>
  <property name="meta.attr.1.stream.HANDLER_NAME.markup">VideoHandler</property>
  <property name="meta.attr.1.stream.DURATION.markup">00:00:59.527000000</property>
  <property name="meta.attr.ENCODER.markup">Lavf58.45.100</property>
  <property name="meta.media.sample_aspect_num">1</property>
  <property name="meta.media.sample_aspect_den">1</property>
  <property name="meta.media.frame_rate_num">20117</property>
  <property name="meta.media.frame_rate_den">672</property>
  <property name="meta.media.colorspace">709</property>
  <property name="meta.media.color_trc">1</property>
  <property name="meta.media.width">1280</property>
  <property name="meta.media.height">720</property>
  <property name="meta.media.color_range">mpeg</property>
  <property name="meta.media.top_field_first">0</property>
  <property name="meta.media.progressive">1</property>
  <property name="set.test_audio">1</property>
  <property name="set.test_image">0</property>
  <property name="meta.media.has_b_frames">1</property>
 </producer>
 <playlist id="playlist8">
  <blank length="00:00:04.767"/>
  <entry producer="producer31" in="00:01:44.300" out="00:01:47.950">
   <property name="kdenlive:id">6</property>
   <filter id="filter19">
    <property name="rotate_center">1</property>
    <property name="mlt_service">qtblend</property>
    <property name="kdenlive_id">qtblend</property>
    <property name="rect">00:01:44.300=-441 0 4723 2656 1.000000</property>
    <property name="rotation">00:01:44.300=0</property>
    <property name="compositing">0</property>
    <property name="distort">0</property>
    <property name="kdenlive:collapsed">1</property>
   </filter>
   <filter id="filter20">
    <property name="version">0.2</property>
    <property name="mlt_service">frei0r.sharpness</property>
    <property name="kdenlive_id">frei0r.sharpness</property>
    <property name="Amount">00:01:44.300=0.5</property>
    <property name="Size">00:01:44.300=0.1</property>
    <property name="kdenlive:collapsed">1</property>
   </filter>
   <filter id="filter21">
    <property name="noise">10</property>
    <property name="contrast">100</property>
    <property name="brightness">90</property>
    <property name="mlt_service">grain</property>
    <property name="kdenlive_id">grain</property>
    <property name="kdenlive:collapsed">1</property>
    <property name="disable">0</property>
   </filter>
  </entry>
  <blank length="00:00:01.817"/>
  <entry producer="producer32" in="00:00:38.433" out="00:00:41.833">
   <property name="kdenlive:id">4</property>
   <filter id="filter22">
    <property name="noise">10</property>
    <property name="contrast">100</property>
    <property name="brightness">90</property>
    <property name="mlt_service">grain</property>
    <property name="kdenlive_id">grain</property>
    <property name="kdenlive:collapsed">1</property>
    <property name="disable">0</property>
   </filter>
   <filter id="filter23">
    <property name="version">0.2</property>
    <property name="mlt_service">frei0r.sharpness</property>
    <property name="kdenlive_id">frei0r.sharpness</property>
    <property name="Amount">00:00:38.433=0.5</property>
    <property name="Size">00:00:38.433=0.1</property>
    <property name="kdenlive:collapsed">1</property>
    <property name="disable">0</property>
   </filter>
  </entry>
  <blank length="00:00:02.033"/>
  <entry producer="producer33" in="00:00:43.717" out="00:00:47.100">
   <property name="kdenlive:id">7</property>
   <filter id="filter24">
    <property name="noise">10</property>
    <property name="contrast">100</property>
    <property name="brightness">90</property>
    <property name="mlt_service">grain</property>
    <property name="kdenlive_id">grain</property>
    <property name="kdenlive:collapsed">1</property>
    <property name="disable">0</property>
   </filter>
   <filter id="filter25">
    <property name="version">0.2</property>
    <property name="mlt_service">frei0r.sharpness</property>
    <property name="kdenlive_id">frei0r.sharpness</property>
    <property name="Amount">00:00:43.717=0.5</property>
    <property name="Size">00:00:43.717=0.1</property>
    <property name="kdenlive:collapsed">1</property>
    <property name="disable">0</property>
   </filter>
  </entry>
  <blank length="00:00:00.617"/>
  <entry producer="producer34" in="00:00:25.517" out="00:00:27.000">
   <property name="kdenlive:id">8</property>
   <filter id="filter26">
    <property name="noise">10</property>
    <property name="contrast">100</property>
    <property name="brightness">100</property>
    <property name="mlt_service">grain</property>
    <property name="kdenlive_id">grain</property>
    <property name="kdenlive:collapsed">1</property>
    <property name="disable">0</property>
   </filter>
   <filter id="filter31">
    <property name="version">0.2</property>
    <property name="mlt_service">frei0r.sharpness</property>
    <property name="kdenlive_id">frei0r.sharpness</property>
    <property name="Amount">00:00:25.517=0.5</property>
    <property name="Size">00:00:25.517=0.1</property>
    <property name="kdenlive:collapsed">1</property>
    <property name="disable">0</property>
   </filter>
  </entry>
  <blank length="00:00:03.033"/>
  <entry producer="producer35" in="00:00:41.733" out="00:00:44.517">
   <property name="kdenlive:id">3</property>
   <filter id="filter32">
    <property name="noise">10</property>
    <property name="contrast">100</property>
    <property name="brightness">95</property>
    <property name="mlt_service">grain</property>
    <property name="kdenlive_id">grain</property>
    <property name="kdenlive:collapsed">1</property>
   </filter>
   <filter id="filter33">
    <property name="version">0.2</property>
    <property name="mlt_service">frei0r.sharpness</property>
    <property name="kdenlive_id">frei0r.sharpness</property>
    <property name="Amount">00:00:41.733=0.5</property>
    <property name="Size">00:00:41.733=0.1</property>
    <property name="kdenlive:collapsed">1</property>
   </filter>
  </entry>
  <blank length="00:00:08.550"/>
  <entry producer="producer6" in="00:00:00.000" out="00:00:03.533">
   <property name="kdenlive:id">14</property>
   <filter id="filter34">
    <property name="rotate_center">1</property>
    <property name="mlt_service">qtblend</property>
    <property name="kdenlive_id">qtblend</property>
    <property name="rect">00:00:00.000~=-191 -786 4224 2376 1.000000;00:00:00.800~=768 -252 2304 1296 1.000000</property>
    <property name="rotation">00:00:00.000~=0;00:00:00.800~=0</property>
    <property name="compositing">0</property>
    <property name="distort">0</property>
    <property name="kdenlive:collapsed">0</property>
   </filter>
   <filter id="filter35" in="00:00:02.533" out="00:00:03.533">
    <property name="start">1</property>
    <property name="level">1</property>
    <property name="mlt_service">brightness</property>
    <property name="kdenlive_id">fade_to_black</property>
    <property name="kdenlive:collapsed">1</property>
    <property name="alpha">00:00:00.000=1;00:00:01.000=0</property>
   </filter>
   <filter id="filter36">
    <property name="version">0.1</property>
    <property name="mlt_service">frei0r.scale0tilt</property>
    <property name="kdenlive_id">frei0r.scale0tilt</property>
    <property name="Clip left">00:00:00.000=0;00:00:00.800=0</property>
    <property name="Clip right">00:00:00.000=0;00:00:00.800=0</property>
    <property name="Clip top">00:00:00.000=0;00:00:00.800=0</property>
    <property name="Clip bottom">00:00:00.000=0.714032;00:00:00.800=0.625</property>
    <property name="Scale X">00:00:00.000=0.5</property>
    <property name="Scale Y">00:00:00.000=0.5</property>
    <property name="Tilt X">00:00:00.000=0.5;00:00:00.800=0.5</property>
    <property name="Tilt Y">00:00:00.000=0.5;00:00:00.800=0.5</property>
    <property name="kdenlive:collapsed">1</property>
   </filter>
  </entry>
 </playlist>
 <playlist id="playlist9"/>
 <tractor id="tractor4" in="00:00:00.000" out="00:00:39.133">
  <property name="kdenlive:trackheight">67</property>
  <property name="kdenlive:timeline_active">1</property>
  <property name="kdenlive:collapsed">28</property>
  <property name="kdenlive:thumbs_format"/>
  <property name="kdenlive:audio_rec"/>
  <property name="kdenlive:locked_track">1</property>
  <track hide="audio" producer="playlist8"/>
  <track hide="audio" producer="playlist9"/>
 </tractor>
 <playlist id="playlist10">
  <blank length="00:00:25.850"/>
  <entry producer="producer12" in="00:00:00.000" out="00:00:01.183">
   <property name="kdenlive:id">16</property>
   <filter id="filter37">
    <property name="rotate_center">1</property>
    <property name="mlt_service">qtblend</property>
    <property name="kdenlive_id">qtblend</property>
    <property name="rect">00:00:00.000=-2688 -1010 9216 5184 1.000000;00:00:01.183=-2688 -1010 9216 5184 1.000000</property>
    <property name="rotation">00:00:00.000=0;00:00:01.183=0</property>
    <property name="compositing">0</property>
    <property name="distort">0</property>
    <property name="kdenlive:collapsed">1</property>
    <property name="disable">1</property>
   </filter>
   <filter id="filter38">
    <property name="version">0.2</property>
    <property name="mlt_service">frei0r.c0rners</property>
    <property name="kdenlive_id">frei0r.c0rners</property>
    <property name="0">00:00:00.000=0.666667;00:00:01.183=0.333333</property>
    <property name="1">00:00:00.000=0.416667;00:00:01.183=0.333333</property>
    <property name="2">00:00:00.000=0.666667;00:00:01.183=0.666667</property>
    <property name="3">00:00:00.000=0.333333;00:00:01.183=0.333333</property>
    <property name="4">00:00:00.000=0.666667;00:00:01.183=0.666667</property>
    <property name="5">00:00:00.000=0.666667;00:00:01.183=0.666667</property>
    <property name="6">00:00:00.000=0.666667;00:00:01.183=0.333333</property>
    <property name="7">00:00:00.000=0.583333;00:00:01.183=0.666667</property>
    <property name="9">00:00:00.000=0.5;00:00:01.183=0.5</property>
    <property name="10">00:00:00.000=0.5;00:00:01.183=0.5</property>
    <property name="13">00:00:00.000=0.05;00:00:01.183=0.05</property>
    <property name="8">0</property>
    <property name="11">0.166</property>
    <property name="12">1</property>
    <property name="14">0</property>
    <property name="kdenlive:collapsed">1</property>
    <property name="disable">0</property>
   </filter>
   <filter id="filter39">
    <property name="background">colour:0</property>
    <property name="mlt_service">affine</property>
    <property name="kdenlive_id">pan_zoom</property>
    <property name="transition.rect">0=-2688 -1010 9216 5184</property>
    <property name="transition.distort">0</property>
    <property name="use_normalised">0</property>
    <property name="producer.resource">0x00000000</property>
    <property name="kdenlive:collapsed">1</property>
   </filter>
  </entry>
  <entry producer="producer11" in="00:00:00.000" out="00:00:07.067">
   <property name="kdenlive:id">10</property>
   <filter id="filter40">
    <property name="rotate_center">1</property>
    <property name="mlt_service">qtblend</property>
    <property name="kdenlive_id">qtblend</property>
    <property name="rect">00:00:00.000~=-30720 -17280 65280 36720 1.000000;00:00:07.067=-6051 -3404 15943 8968 1.000000</property>
    <property name="rotation">00:00:00.000~=0;00:00:07.067=0</property>
    <property name="compositing">0</property>
    <property name="distort">0</property>
    <property name="kdenlive:collapsed">0</property>
   </filter>
  </entry>
  <entry producer="producer13" in="00:00:00.000" out="00:00:00.367">
   <property name="kdenlive:id">18</property>
   <filter id="filter41">
    <property name="rotate_center">1</property>
    <property name="mlt_service">qtblend</property>
    <property name="kdenlive_id">qtblend</property>
    <property name="rect">00:00:00.000=-5994 -3371 15828 8903 1.000000;00:00:00.367=-4766 -2681 13372 7522 1.000000</property>
    <property name="rotation">00:00:00.000=0;00:00:00.367=0</property>
    <property name="compositing">0</property>
    <property name="distort">0</property>
    <property name="kdenlive:collapsed">0</property>
   </filter>
  </entry>
  <entry producer="producer14" in="00:00:00.000" out="00:00:00.383">
   <property name="kdenlive:id">19</property>
   <filter id="filter42">
    <property name="rotate_center">1</property>
    <property name="mlt_service">qtblend</property>
    <property name="kdenlive_id">qtblend</property>
    <property name="rect">00:00:00.000=-4712 -2650 13264 7461 1.000000;00:00:00.383=-3522 -1981 10886 6123 1.000000</property>
    <property name="rotation">00:00:00.000=0;00:00:00.383=0</property>
    <property name="compositing">0</property>
    <property name="distort">0</property>
    <property name="kdenlive:collapsed">0</property>
   </filter>
  </entry>
  <entry producer="producer15" in="00:00:00.000" out="00:00:00.400">
   <property name="kdenlive:id">20</property>
   <filter id="filter43">
    <property name="rotate_center">1</property>
    <property name="mlt_service">qtblend</property>
    <property name="kdenlive_id">qtblend</property>
    <property name="rect">00:00:00.000=-3473 -1953 10787 6068 1.000000;00:00:00.400=-2350 -1322 8541 4804 1.000000</property>
    <property name="rotation">00:00:00.000=0;00:00:00.400=0</property>
    <property name="compositing">0</property>
    <property name="distort">0</property>
    <property name="kdenlive:collapsed">0</property>
   </filter>
  </entry>
  <entry producer="producer16" in="00:00:00.000" out="00:00:00.383">
   <property name="kdenlive:id">21</property>
   <filter id="filter44">
    <property name="rotate_center">1</property>
    <property name="mlt_service">qtblend</property>
    <property name="kdenlive_id">qtblend</property>
    <property name="rect">00:00:00.000=-2306 -1297 8452 4754 1.000000;00:00:00.383=-1356 -763 6553 3686 1.000000</property>
    <property name="rotation">00:00:00.000=0;00:00:00.383=0</property>
    <property name="compositing">0</property>
    <property name="distort">0</property>
    <property name="kdenlive:collapsed">0</property>
   </filter>
  </entry>
  <entry producer="producer17" in="00:00:00.000" out="00:00:00.383">
   <property name="kdenlive:id">22</property>
   <filter id="filter45">
    <property name="rotate_center">1</property>
    <property name="mlt_service">qtblend</property>
    <property name="kdenlive_id">qtblend</property>
    <property name="rect">00:00:00.000=-1318 -741 6476 3643 1.000000;00:00:00.383=-506 -285 4853 2730 1.000000</property>
    <property name="rotation">00:00:00.000=0;00:00:00.383=0</property>
    <property name="compositing">0</property>
    <property name="distort">0</property>
    <property name="kdenlive:collapsed">0</property>
   </filter>
  </entry>
  <entry producer="producer18" in="00:00:00.000" out="00:00:00.367">
   <property name="kdenlive:id">23</property>
   <filter id="filter46">
    <property name="rotate_center">1</property>
    <property name="mlt_service">qtblend</property>
    <property name="kdenlive_id">qtblend</property>
    <property name="rect">00:00:00.000=-474 -267 4789 2694 1.000000;00:00:00.267=0 0 3840 2160 1.000000</property>
    <property name="rotation">00:00:00.000=0;00:00:00.267=0</property>
    <property name="compositing">0</property>
    <property name="distort">0</property>
    <property name="kdenlive:collapsed">0</property>
   </filter>
  </entry>
  <entry producer="producer19" in="00:00:00.000" out="00:00:00.383">
   <property name="kdenlive:id">24</property>
  </entry>
  <entry producer="producer20" in="00:00:00.000" out="00:00:00.383">
   <property name="kdenlive:id">25</property>
  </entry>
  <entry producer="producer21" in="00:00:00.000" out="00:00:00.400">
   <property name="kdenlive:id">26</property>
  </entry>
  <entry producer="producer11" in="00:00:00.000" out="00:00:00.367">
   <property name="kdenlive:id">10</property>
  </entry>
  <entry producer="producer13" in="00:00:00.000" out="00:00:01.017">
   <property name="kdenlive:id">18</property>
   <filter id="filter47" in="00:00:-0.017" out="00:00:01.017">
    <property name="start">1</property>
    <property name="level">1</property>
    <property name="mlt_service">brightness</property>
    <property name="kdenlive_id">fade_to_black</property>
    <property name="kdenlive:collapsed">0</property>
    <property name="alpha">00:00:00.000=1;00:00:01.033=0</property>
   </filter>
  </entry>
 </playlist>
 <playlist id="playlist11"/>
 <tractor id="tractor5" in="00:00:00.000" out="00:00:39.133">
  <property name="kdenlive:trackheight">67</property>
  <property name="kdenlive:timeline_active">1</property>
  <property name="kdenlive:collapsed">28</property>
  <property name="kdenlive:thumbs_format"/>
  <property name="kdenlive:audio_rec"/>
  <property name="kdenlive:locked_track">1</property>
  <track hide="audio" producer="playlist10"/>
  <track hide="audio" producer="playlist11"/>
 </tractor>
 <playlist id="playlist12">
  <blank length="00:00:38.117"/>
  <entry producer="producer1" in="00:00:00.000" out="00:00:08.050">
   <property name="kdenlive:id">11</property>
   <filter id="filter48" in="00:00:06.967" out="00:00:08.050">
    <property name="start">1</property>
    <property name="level">1</property>
    <property name="mlt_service">brightness</property>
    <property name="kdenlive_id">fade_to_black</property>
    <property name="kdenlive:collapsed">0</property>
    <property name="alpha">00:00:00.000=1;00:00:01.083=0</property>
   </filter>
  </entry>
 </playlist>
 <playlist id="playlist13"/>
 <tractor id="tractor6" in="00:00:00.000" out="00:00:46.167">
  <property name="kdenlive:trackheight">67</property>
  <property name="kdenlive:timeline_active">1</property>
  <property name="kdenlive:collapsed">28</property>
  <property name="kdenlive:thumbs_format"/>
  <property name="kdenlive:audio_rec"/>
  <property name="kdenlive:locked_track">1</property>
  <track hide="audio" producer="playlist12"/>
  <track hide="audio" producer="playlist13"/>
 </tractor>
 <playlist id="playlist14">
  <entry producer="producer7" in="00:00:00.000" out="00:00:46.167">
   <property name="kdenlive:id">5</property>
   <filter id="filter49" in="00:00:45.083" out="00:00:46.167">
    <property name="start">1</property>
    <property name="level">1</property>
    <property name="mlt_service">brightness</property>
    <property name="kdenlive_id">fade_to_black</property>
    <property name="kdenlive:collapsed">0</property>
    <property name="alpha">00:00:00.000=1;00:00:01.083=0</property>
   </filter>
  </entry>
 </playlist>
 <playlist id="playlist15"/>
 <tractor id="tractor7" in="00:00:00.000" out="00:00:46.167">
  <property name="kdenlive:trackheight">67</property>
  <property name="kdenlive:timeline_active">0</property>
  <property name="kdenlive:collapsed">28</property>
  <property name="kdenlive:thumbs_format"/>
  <property name="kdenlive:audio_rec"/>
  <property name="kdenlive:locked_track">1</property>
  <track hide="audio" producer="playlist14"/>
  <track hide="audio" producer="playlist15"/>
 </tractor>
 <tractor id="tractor8" in="00:00:00.000" out="00:09:06.183">
  <track producer="black_track"/>
  <track producer="tractor0"/>
  <track producer="tractor1"/>
  <track producer="tractor2"/>
  <track producer="tractor3"/>
  <track producer="tractor4"/>
  <track producer="tractor5"/>
  <track producer="tractor6"/>
  <track producer="tractor7"/>
  <transition id="transition0" in="00:00:24.250" out="00:00:24.717">
   <property name="a_track">4</property>
   <property name="b_track">5</property>
   <property name="geometry">00:00:00.000=0% 0% 100% 100% 0%;00:00:00.467=0% 0% 100% 100% 100%</property>
   <property name="factory">loader</property>
   <property name="aligned">0</property>
   <property name="progressive">1</property>
   <property name="mlt_service">composite</property>
   <property name="kdenlive_id">wipe</property>
   <property name="luma"/>
   <property name="softness">0</property>
   <property name="luma_invert">0</property>
   <property name="fill">1</property>
  </transition>
  <transition id="transition1" in="00:00:20.833" out="00:00:21.200">
   <property name="a_track">4</property>
   <property name="b_track">5</property>
   <property name="geometry">0=0% 0% 100% 100% 100%;-1=0% 0% 100% 100% 0%</property>
   <property name="factory">loader</property>
   <property name="aligned">0</property>
   <property name="progressive">1</property>
   <property name="mlt_service">composite</property>
   <property name="kdenlive_id">wipe</property>
   <property name="luma"/>
   <property name="softness">0</property>
   <property name="luma_invert">0</property>
   <property name="fill">1</property>
  </transition>
  <transition id="transition2" in="00:00:18.750" out="00:00:19.083">
   <property name="a_track">4</property>
   <property name="b_track">5</property>
   <property name="geometry">0=0% 0% 100% 100% 100%;-1=0% 0% 100% 100% 0%</property>
   <property name="factory">loader</property>
   <property name="aligned">0</property>
   <property name="progressive">1</property>
   <property name="mlt_service">composite</property>
   <property name="kdenlive_id">wipe</property>
   <property name="luma"/>
   <property name="softness">0</property>
   <property name="luma_invert">0</property>
   <property name="fill">1</property>
  </transition>
  <transition id="transition3" in="00:00:19.717" out="00:00:20.067">
   <property name="a_track">4</property>
   <property name="b_track">5</property>
   <property name="geometry">0=0% 0% 100% 100% 0%;-1=0% 0% 100% 100% 100%</property>
   <property name="factory">loader</property>
   <property name="aligned">0</property>
   <property name="progressive">1</property>
   <property name="mlt_service">composite</property>
   <property name="kdenlive_id">wipe</property>
   <property name="luma"/>
   <property name="softness">0</property>
   <property name="luma_invert">0</property>
   <property name="fill">1</property>
  </transition>
  <transition id="transition4" in="00:00:15.700" out="00:00:16.267">
   <property name="a_track">4</property>
   <property name="b_track">5</property>
   <property name="geometry">00:00:00.000=0% 0% 100% 100% 0%;00:00:00.567=0% 0% 100% 100% 100%</property>
   <property name="factory">loader</property>
   <property name="aligned">0</property>
   <property name="progressive">1</property>
   <property name="mlt_service">composite</property>
   <property name="kdenlive_id">wipe</property>
   <property name="luma"/>
   <property name="softness">0</property>
   <property name="luma_invert">0</property>
   <property name="fill">1</property>
  </transition>
  <transition id="transition5" in="00:00:04.767" out="00:00:05.417">
   <property name="a_track">4</property>
   <property name="b_track">5</property>
   <property name="geometry">0=0% 0% 100% 100% 0%;-1=0% 0% 100% 100% 100%</property>
   <property name="factory">loader</property>
   <property name="aligned">0</property>
   <property name="progressive">1</property>
   <property name="mlt_service">composite</property>
   <property name="kdenlive_id">wipe</property>
   <property name="luma"/>
   <property name="softness">0</property>
   <property name="luma_invert">0</property>
   <property name="fill">1</property>
  </transition>
  <transition id="transition6" in="00:00:07.767" out="00:00:08.417">
   <property name="a_track">4</property>
   <property name="b_track">5</property>
   <property name="geometry">0=0% 0% 100% 100% 100%;-1=0% 0% 100% 100% 0%</property>
   <property name="factory">loader</property>
   <property name="aligned">0</property>
   <property name="progressive">1</property>
   <property name="mlt_service">composite</property>
   <property name="kdenlive_id">wipe</property>
   <property name="luma"/>
   <property name="softness">0</property>
   <property name="luma_invert">0</property>
   <property name="fill">1</property>
  </transition>
  <transition id="transition7" in="00:00:13.233" out="00:00:13.650">
   <property name="a_track">4</property>
   <property name="b_track">5</property>
   <property name="geometry">0=0% 0% 100% 100% 100%;-1=0% 0% 100% 100% 0%</property>
   <property name="factory">loader</property>
   <property name="aligned">0</property>
   <property name="progressive">1</property>
   <property name="mlt_service">composite</property>
   <property name="kdenlive_id">wipe</property>
   <property name="luma"/>
   <property name="softness">0</property>
   <property name="luma_invert">0</property>
   <property name="fill">1</property>
  </transition>
  <transition id="transition8" in="00:00:10.250" out="00:00:10.950">
   <property name="a_track">4</property>
   <property name="b_track">5</property>
   <property name="geometry">0=0% 0% 100% 100% 0%;-1=0% 0% 100% 100% 100%</property>
   <property name="factory">loader</property>
   <property name="aligned">0</property>
   <property name="progressive">1</property>
   <property name="mlt_service">composite</property>
   <property name="kdenlive_id">wipe</property>
   <property name="luma"/>
   <property name="softness">0</property>
   <property name="luma_invert">0</property>
   <property name="fill">1</property>
  </transition>
  <transition id="transition9">
   <property name="a_track">0</property>
   <property name="b_track">1</property>
   <property name="mlt_service">mix</property>
   <property name="kdenlive_id">mix</property>
   <property name="internal_added">237</property>
   <property name="always_active">1</property>
   <property name="accepts_blanks">1</property>
   <property name="sum">1</property>
  </transition>
  <transition id="transition10">
   <property name="a_track">0</property>
   <property name="b_track">2</property>
   <property name="mlt_service">mix</property>
   <property name="kdenlive_id">mix</property>
   <property name="internal_added">237</property>
   <property name="always_active">1</property>
   <property name="accepts_blanks">1</property>
   <property name="sum">1</property>
  </transition>
  <transition id="transition11">
   <property name="a_track">0</property>
   <property name="b_track">3</property>
   <property name="version">0.1</property>
   <property name="mlt_service">frei0r.cairoblend</property>
   <property name="kdenlive_id">frei0r.cairoblend</property>
   <property name="internal_added">237</property>
   <property name="always_active">1</property>
  </transition>
  <transition id="transition12">
   <property name="a_track">0</property>
   <property name="b_track">4</property>
   <property name="version">0.1</property>
   <property name="mlt_service">frei0r.cairoblend</property>
   <property name="kdenlive_id">frei0r.cairoblend</property>
   <property name="internal_added">237</property>
   <property name="always_active">1</property>
  </transition>
  <transition id="transition13">
   <property name="a_track">0</property>
   <property name="b_track">5</property>
   <property name="version">0.1</property>
   <property name="mlt_service">frei0r.cairoblend</property>
   <property name="kdenlive_id">frei0r.cairoblend</property>
   <property name="internal_added">237</property>
   <property name="always_active">1</property>
  </transition>
  <transition id="transition14">
   <property name="a_track">0</property>
   <property name="b_track">6</property>
   <property name="version">0.1</property>
   <property name="mlt_service">frei0r.cairoblend</property>
   <property name="kdenlive_id">frei0r.cairoblend</property>
   <property name="internal_added">237</property>
   <property name="always_active">1</property>
  </transition>
  <transition id="transition15">
   <property name="a_track">0</property>
   <property name="b_track">7</property>
   <property name="version">0.1</property>
   <property name="mlt_service">frei0r.cairoblend</property>
   <property name="kdenlive_id">frei0r.cairoblend</property>
   <property name="internal_added">237</property>
   <property name="always_active">1</property>
  </transition>
  <transition id="transition16">
   <property name="a_track">0</property>
   <property name="b_track">8</property>
   <property name="version">0.1</property>
   <property name="mlt_service">frei0r.cairoblend</property>
   <property name="kdenlive_id">frei0r.cairoblend</property>
   <property name="internal_added">237</property>
   <property name="always_active">1</property>
  </transition>
  <filter id="filter50">
   <property name="window">75</property>
   <property name="max_gain">20dB</property>
   <property name="mlt_service">volume</property>
   <property name="internal_added">237</property>
   <property name="disable">1</property>
  </filter>
  <filter id="filter51">
   <property name="channel">-1</property>
   <property name="mlt_service">panner</property>
   <property name="internal_added">237</property>
   <property name="start">0.5</property>
   <property name="disable">1</property>
  </filter>
  <filter id="filter52">
   <property name="iec_scale">0</property>
   <property name="mlt_service">audiolevel</property>
   <property name="peak">1</property>
   <property name="disable">1</property>
  </filter>
 </tractor>
</mlt>
