<svg xmlns="http://www.w3.org/2000/svg" xmlns:xlink="http://www.w3.org/1999/xlink" width="1000" height="1000" viewBox="0 0 77.102 77.102">
  <defs>
    <linearGradient id="a">
      <stop offset="0" stop-color="#33343c"/>
      <stop offset="1" stop-color="#3334ff"/>
    </linearGradient>
    <linearGradient id="b" x1="40.195" x2="40.195" y1=".122" y2="77.496" gradientUnits="userSpaceOnUse" xlink:href="#a"/>
  </defs>
  <path fill="url(#b)" fill-rule="evenodd" d="M10.98 52.312h22.852c.604 2.635 1.73 4.475 3.35 5.683 1.73 1.126 4.175 1.73 7.417 1.73 2.746 0 4.97-.495 6.51-1.428 1.62-.906 2.333-2.224 2.333-3.844 0-2.635-3.24-4.777-9.86-6.506l-3.049-.715c-5.383-1.427-9.75-2.635-12.881-3.76-3.158-1.21-5.494-2.225-6.922-3.24-2.746-1.922-4.86-4.366-6.29-7.11-1.428-2.828-2.142-6.095-2.142-9.747 0-7.193 2.747-12.903 8.24-17.049a28.855 28.855 0 019.53-4.667C33.832.645 38.088.123 42.978.123c9.339 0 16.754 1.949 22.137 5.902 5.384 3.953 8.432 9.636 9.147 17.048H52.014c-.302-2.141-1.209-3.76-2.829-4.776-1.538-1.099-3.763-1.62-6.62-1.62-2.443 0-4.256.411-5.575 1.208-1.235.823-1.84 2.032-1.84 3.761 0 2.334 3.269 4.366 9.669 6.095l1.208.302 4.258 1.015c8.541 2.142 14.117 4.173 16.672 5.903 3.131 2.114 5.466 4.557 7.004 7.303 1.511 2.745 2.334 5.984 2.334 9.746 0 8.016-2.856 14.22-8.431 18.585-5.686 4.365-13.707 6.507-24.28 6.507-9.752 0-17.36-2.142-23.045-6.507-5.686-4.364-8.845-10.459-9.559-18.283z" clip-rule="evenodd"/>
  <path fill="#fff" fill-rule="evenodd" stroke="#33348e" stroke-miterlimit="2.613" stroke-width=".082" d="M.872 19.999h21.012L28.366.013l6.51 19.986h21.01L38.914 32.353l6.483 19.987-17.03-12.354L11.337 52.34l6.51-19.987z" clip-rule="evenodd"/>
  <path fill="#fff" fill-rule="evenodd" stroke="#33348e" stroke-miterlimit="2.613" stroke-width=".082" d="M9.662 52.312h20.984v2.526H9.662z" clip-rule="evenodd"/>
</svg>
